<svg width="68" height="68" viewBox="0 0 68 68" fill="none" xmlns="http://www.w3.org/2000/svg">
<path d="M66.5558 16.813L66.5363 16.8306L66.5177 16.8492L51.8485 31.5351C50.5288 32.8564 50.5288 35.1436 51.8485 36.4649L66.5177 51.1508C67.0575 51.6912 67.0575 52.7134 66.5177 53.2538L53.1915 66.5952C52.6523 67.1349 51.6333 67.1349 51.0941 66.5952L36.4249 51.9093C35.1046 50.5874 32.8179 50.5874 31.4976 51.9093L16.8284 66.5952C16.2892 67.1349 15.2702 67.1349 14.7311 66.5952L1.40481 53.2538C0.865063 52.7134 0.865061 51.6912 1.40481 51.1508L16.074 36.4649C17.3937 35.1436 17.3937 32.8564 16.074 31.5351L1.40481 16.8492C0.865062 16.3088 0.865062 15.2866 1.40481 14.7462L14.7311 1.4048C15.2702 0.865066 16.2892 0.865066 16.8284 1.4048L31.4976 16.0907C32.8179 17.4126 35.1046 17.4126 36.4249 16.0907L51.0941 1.4048L50.3866 0.698099L51.0942 1.4048C51.6333 0.865066 52.6523 0.865066 53.1915 1.4048L53.8952 0.701916L53.1915 1.4048L66.5177 14.7462C67.1826 15.4119 67.1262 16.299 66.5558 16.813Z" stroke="url(#paint0_linear_188_5817)" stroke-width="2"/>
<defs>
<linearGradient id="paint0_linear_188_5817" x1="0" y1="34" x2="68" y2="34" gradientUnits="userSpaceOnUse">
<stop stop-color="#F7941D"/>
<stop offset="1" stop-color="#27AAE1"/>
</linearGradient>
</defs>
</svg>
