<svg width="1014" height="442" viewBox="0 0 1014 442" fill="none" xmlns="http://www.w3.org/2000/svg">
<g opacity="0.5">
<circle cx="1" cy="1" r="1" fill="#27AAE1"/>
<circle cx="23" cy="1" r="1" fill="#27AAE1"/>
<circle cx="45" cy="1" r="1" fill="#27AAE1"/>
<circle cx="67" cy="1" r="1" fill="#27AAE1"/>
<circle cx="89" cy="1" r="1" fill="#27AAE1"/>
<circle cx="111" cy="1" r="1" fill="#27AAE1"/>
<circle cx="133" cy="1" r="1" fill="#27AAE1"/>
<circle cx="155" cy="1" r="1" fill="#27AAE1"/>
<circle cx="177" cy="1" r="1" fill="#27AAE1"/>
<circle cx="199" cy="1" r="1" fill="#27AAE1"/>
<circle cx="221" cy="1" r="1" fill="#27AAE1"/>
<circle cx="243" cy="1" r="1" fill="#27AAE1"/>
<circle cx="265" cy="1" r="1" fill="#27AAE1"/>
<circle cx="287" cy="1" r="1" fill="#27AAE1"/>
<circle cx="309" cy="1" r="1" fill="#27AAE1"/>
<circle cx="331" cy="1" r="1" fill="#27AAE1"/>
<circle cx="353" cy="1" r="1" fill="#27AAE1"/>
<circle cx="375" cy="1" r="1" fill="#27AAE1"/>
<circle cx="397" cy="1" r="1" fill="#27AAE1"/>
<circle cx="419" cy="1" r="1" fill="#27AAE1"/>
<circle cx="441" cy="1" r="1" fill="#27AAE1"/>
<circle cx="463" cy="1" r="1" fill="#27AAE1"/>
<circle cx="485" cy="1" r="1" fill="#27AAE1"/>
<circle cx="507" cy="1" r="1" fill="#27AAE1"/>
<circle cx="529" cy="1" r="1" fill="#27AAE1"/>
<circle cx="551" cy="1" r="1" fill="#27AAE1"/>
<circle cx="573" cy="1" r="1" fill="#27AAE1"/>
<circle cx="595" cy="1" r="1" fill="#27AAE1"/>
<circle cx="617" cy="1" r="1" fill="#27AAE1"/>
<circle cx="639" cy="1" r="1" fill="#27AAE1"/>
<circle cx="661" cy="1" r="1" fill="#27AAE1"/>
<circle cx="683" cy="1" r="1" fill="#27AAE1"/>
<circle cx="705" cy="1" r="1" fill="#27AAE1"/>
<circle cx="727" cy="1" r="1" fill="#27AAE1"/>
<circle cx="749" cy="1" r="1" fill="#27AAE1"/>
<circle cx="771" cy="1" r="1" fill="#27AAE1"/>
<circle cx="793" cy="1" r="1" fill="#27AAE1"/>
<circle cx="815" cy="1" r="1" fill="#27AAE1"/>
<circle cx="837" cy="1" r="1" fill="#27AAE1"/>
<circle cx="859" cy="1" r="1" fill="#27AAE1"/>
<circle cx="881" cy="1" r="1" fill="#27AAE1"/>
<circle cx="903" cy="1" r="1" fill="#27AAE1"/>
<circle cx="925" cy="1" r="1" fill="#27AAE1"/>
<circle cx="947" cy="1" r="1" fill="#27AAE1"/>
<circle cx="969" cy="1" r="1" fill="#27AAE1"/>
<circle cx="991" cy="1" r="1" fill="#27AAE1"/>
<circle cx="1013" cy="1" r="1" fill="#27AAE1"/>
<circle cx="1" cy="23" r="1" fill="#27AAE1"/>
<circle cx="23" cy="23" r="1" fill="#27AAE1"/>
<circle cx="45" cy="23" r="1" fill="#27AAE1"/>
<circle cx="67" cy="23" r="1" fill="#27AAE1"/>
<circle cx="89" cy="23" r="1" fill="#27AAE1"/>
<circle cx="111" cy="23" r="1" fill="#27AAE1"/>
<circle cx="133" cy="23" r="1" fill="#27AAE1"/>
<circle cx="155" cy="23" r="1" fill="#27AAE1"/>
<circle cx="177" cy="23" r="1" fill="#27AAE1"/>
<circle cx="199" cy="23" r="1" fill="#27AAE1"/>
<circle cx="221" cy="23" r="1" fill="#27AAE1"/>
<circle cx="243" cy="23" r="1" fill="#27AAE1"/>
<circle cx="265" cy="23" r="1" fill="#27AAE1"/>
<circle cx="287" cy="23" r="1" fill="#27AAE1"/>
<circle cx="309" cy="23" r="1" fill="#27AAE1"/>
<circle cx="331" cy="23" r="1" fill="#27AAE1"/>
<circle cx="353" cy="23" r="1" fill="#27AAE1"/>
<circle cx="375" cy="23" r="1" fill="#27AAE1"/>
<circle cx="397" cy="23" r="1" fill="#27AAE1"/>
<circle cx="419" cy="23" r="1" fill="#27AAE1"/>
<circle cx="441" cy="23" r="1" fill="#27AAE1"/>
<circle cx="463" cy="23" r="1" fill="#27AAE1"/>
<circle cx="485" cy="23" r="1" fill="#27AAE1"/>
<circle cx="507" cy="23" r="1" fill="#27AAE1"/>
<circle cx="529" cy="23" r="1" fill="#27AAE1"/>
<circle cx="551" cy="23" r="1" fill="#27AAE1"/>
<circle cx="573" cy="23" r="1" fill="#27AAE1"/>
<circle cx="595" cy="23" r="1" fill="#27AAE1"/>
<circle cx="617" cy="23" r="1" fill="#27AAE1"/>
<circle cx="639" cy="23" r="1" fill="#27AAE1"/>
<circle cx="661" cy="23" r="1" fill="#27AAE1"/>
<circle cx="683" cy="23" r="1" fill="#27AAE1"/>
<circle cx="705" cy="23" r="1" fill="#27AAE1"/>
<circle cx="727" cy="23" r="1" fill="#27AAE1"/>
<circle cx="749" cy="23" r="1" fill="#27AAE1"/>
<circle cx="771" cy="23" r="1" fill="#27AAE1"/>
<circle cx="793" cy="23" r="1" fill="#27AAE1"/>
<circle cx="815" cy="23" r="1" fill="#27AAE1"/>
<circle cx="837" cy="23" r="1" fill="#27AAE1"/>
<circle cx="859" cy="23" r="1" fill="#27AAE1"/>
<circle cx="881" cy="23" r="1" fill="#27AAE1"/>
<circle cx="903" cy="23" r="1" fill="#27AAE1"/>
<circle cx="925" cy="23" r="1" fill="#27AAE1"/>
<circle cx="947" cy="23" r="1" fill="#27AAE1"/>
<circle cx="969" cy="23" r="1" fill="#27AAE1"/>
<circle cx="991" cy="23" r="1" fill="#27AAE1"/>
<circle cx="1013" cy="23" r="1" fill="#27AAE1"/>
<circle cx="1" cy="45" r="1" fill="#27AAE1"/>
<circle cx="23" cy="45" r="1" fill="#27AAE1"/>
<circle cx="45" cy="45" r="1" fill="#27AAE1"/>
<circle cx="67" cy="45" r="1" fill="#27AAE1"/>
<circle cx="89" cy="45" r="1" fill="#27AAE1"/>
<circle cx="111" cy="45" r="1" fill="#27AAE1"/>
<circle cx="133" cy="45" r="1" fill="#27AAE1"/>
<circle cx="155" cy="45" r="1" fill="#27AAE1"/>
<circle cx="177" cy="45" r="1" fill="#27AAE1"/>
<circle cx="199" cy="45" r="1" fill="#27AAE1"/>
<circle cx="221" cy="45" r="1" fill="#27AAE1"/>
<circle cx="243" cy="45" r="1" fill="#27AAE1"/>
<circle cx="265" cy="45" r="1" fill="#27AAE1"/>
<circle cx="287" cy="45" r="1" fill="#27AAE1"/>
<circle cx="309" cy="45" r="1" fill="#27AAE1"/>
<circle cx="331" cy="45" r="1" fill="#27AAE1"/>
<circle cx="353" cy="45" r="1" fill="#27AAE1"/>
<circle cx="375" cy="45" r="1" fill="#27AAE1"/>
<circle cx="397" cy="45" r="1" fill="#27AAE1"/>
<circle cx="419" cy="45" r="1" fill="#27AAE1"/>
<circle cx="441" cy="45" r="1" fill="#27AAE1"/>
<circle cx="463" cy="45" r="1" fill="#27AAE1"/>
<circle cx="485" cy="45" r="1" fill="#27AAE1"/>
<circle cx="507" cy="45" r="1" fill="#27AAE1"/>
<circle cx="529" cy="45" r="1" fill="#27AAE1"/>
<circle cx="551" cy="45" r="1" fill="#27AAE1"/>
<circle cx="573" cy="45" r="1" fill="#27AAE1"/>
<circle cx="595" cy="45" r="1" fill="#27AAE1"/>
<circle cx="617" cy="45" r="1" fill="#27AAE1"/>
<circle cx="639" cy="45" r="1" fill="#27AAE1"/>
<circle cx="661" cy="45" r="1" fill="#27AAE1"/>
<circle cx="683" cy="45" r="1" fill="#27AAE1"/>
<circle cx="705" cy="45" r="1" fill="#27AAE1"/>
<circle cx="727" cy="45" r="1" fill="#27AAE1"/>
<circle cx="749" cy="45" r="1" fill="#27AAE1"/>
<circle cx="771" cy="45" r="1" fill="#27AAE1"/>
<circle cx="793" cy="45" r="1" fill="#27AAE1"/>
<circle cx="815" cy="45" r="1" fill="#27AAE1"/>
<circle cx="837" cy="45" r="1" fill="#27AAE1"/>
<circle cx="859" cy="45" r="1" fill="#27AAE1"/>
<circle cx="881" cy="45" r="1" fill="#27AAE1"/>
<circle cx="903" cy="45" r="1" fill="#27AAE1"/>
<circle cx="925" cy="45" r="1" fill="#27AAE1"/>
<circle cx="947" cy="45" r="1" fill="#27AAE1"/>
<circle cx="969" cy="45" r="1" fill="#27AAE1"/>
<circle cx="991" cy="45" r="1" fill="#27AAE1"/>
<circle cx="1013" cy="45" r="1" fill="#27AAE1"/>
<circle cx="1" cy="67" r="1" fill="#27AAE1"/>
<circle cx="23" cy="67" r="1" fill="#27AAE1"/>
<circle cx="45" cy="67" r="1" fill="#27AAE1"/>
<circle cx="67" cy="67" r="1" fill="#27AAE1"/>
<circle cx="89" cy="67" r="1" fill="#27AAE1"/>
<circle cx="111" cy="67" r="1" fill="#27AAE1"/>
<circle cx="133" cy="67" r="1" fill="#27AAE1"/>
<circle cx="155" cy="67" r="1" fill="#27AAE1"/>
<circle cx="177" cy="67" r="1" fill="#27AAE1"/>
<circle cx="199" cy="67" r="1" fill="#27AAE1"/>
<circle cx="221" cy="67" r="1" fill="#27AAE1"/>
<circle cx="243" cy="67" r="1" fill="#27AAE1"/>
<circle cx="265" cy="67" r="1" fill="#27AAE1"/>
<circle cx="287" cy="67" r="1" fill="#27AAE1"/>
<circle cx="309" cy="67" r="1" fill="#27AAE1"/>
<circle cx="331" cy="67" r="1" fill="#27AAE1"/>
<circle cx="353" cy="67" r="1" fill="#27AAE1"/>
<circle cx="375" cy="67" r="1" fill="#27AAE1"/>
<circle cx="397" cy="67" r="1" fill="#27AAE1"/>
<circle cx="419" cy="67" r="1" fill="#27AAE1"/>
<circle cx="441" cy="67" r="1" fill="#27AAE1"/>
<circle cx="463" cy="67" r="1" fill="#27AAE1"/>
<circle cx="485" cy="67" r="1" fill="#27AAE1"/>
<circle cx="507" cy="67" r="1" fill="#27AAE1"/>
<circle cx="529" cy="67" r="1" fill="#27AAE1"/>
<circle cx="551" cy="67" r="1" fill="#27AAE1"/>
<circle cx="573" cy="67" r="1" fill="#27AAE1"/>
<circle cx="595" cy="67" r="1" fill="#27AAE1"/>
<circle cx="617" cy="67" r="1" fill="#27AAE1"/>
<circle cx="639" cy="67" r="1" fill="#27AAE1"/>
<circle cx="661" cy="67" r="1" fill="#27AAE1"/>
<circle cx="683" cy="67" r="1" fill="#27AAE1"/>
<circle cx="705" cy="67" r="1" fill="#27AAE1"/>
<circle cx="727" cy="67" r="1" fill="#27AAE1"/>
<circle cx="749" cy="67" r="1" fill="#27AAE1"/>
<circle cx="771" cy="67" r="1" fill="#27AAE1"/>
<circle cx="793" cy="67" r="1" fill="#27AAE1"/>
<circle cx="815" cy="67" r="1" fill="#27AAE1"/>
<circle cx="837" cy="67" r="1" fill="#27AAE1"/>
<circle cx="859" cy="67" r="1" fill="#27AAE1"/>
<circle cx="881" cy="67" r="1" fill="#27AAE1"/>
<circle cx="903" cy="67" r="1" fill="#27AAE1"/>
<circle cx="925" cy="67" r="1" fill="#27AAE1"/>
<circle cx="947" cy="67" r="1" fill="#27AAE1"/>
<circle cx="969" cy="67" r="1" fill="#27AAE1"/>
<circle cx="991" cy="67" r="1" fill="#27AAE1"/>
<circle cx="1013" cy="67" r="1" fill="#27AAE1"/>
<circle cx="1" cy="89" r="1" fill="#27AAE1"/>
<circle cx="23" cy="89" r="1" fill="#27AAE1"/>
<circle cx="45" cy="89" r="1" fill="#27AAE1"/>
<circle cx="67" cy="89" r="1" fill="#27AAE1"/>
<circle cx="89" cy="89" r="1" fill="#27AAE1"/>
<circle cx="111" cy="89" r="1" fill="#27AAE1"/>
<circle cx="133" cy="89" r="1" fill="#27AAE1"/>
<circle cx="155" cy="89" r="1" fill="#27AAE1"/>
<circle cx="177" cy="89" r="1" fill="#27AAE1"/>
<circle cx="199" cy="89" r="1" fill="#27AAE1"/>
<circle cx="221" cy="89" r="1" fill="#27AAE1"/>
<circle cx="243" cy="89" r="1" fill="#27AAE1"/>
<circle cx="265" cy="89" r="1" fill="#27AAE1"/>
<circle cx="287" cy="89" r="1" fill="#27AAE1"/>
<circle cx="309" cy="89" r="1" fill="#27AAE1"/>
<circle cx="331" cy="89" r="1" fill="#27AAE1"/>
<circle cx="353" cy="89" r="1" fill="#27AAE1"/>
<circle cx="375" cy="89" r="1" fill="#27AAE1"/>
<circle cx="397" cy="89" r="1" fill="#27AAE1"/>
<circle cx="419" cy="89" r="1" fill="#27AAE1"/>
<circle cx="441" cy="89" r="1" fill="#27AAE1"/>
<circle cx="463" cy="89" r="1" fill="#27AAE1"/>
<circle cx="485" cy="89" r="1" fill="#27AAE1"/>
<circle cx="507" cy="89" r="1" fill="#27AAE1"/>
<circle cx="529" cy="89" r="1" fill="#27AAE1"/>
<circle cx="551" cy="89" r="1" fill="#27AAE1"/>
<circle cx="573" cy="89" r="1" fill="#27AAE1"/>
<circle cx="595" cy="89" r="1" fill="#27AAE1"/>
<circle cx="617" cy="89" r="1" fill="#27AAE1"/>
<circle cx="639" cy="89" r="1" fill="#27AAE1"/>
<circle cx="661" cy="89" r="1" fill="#27AAE1"/>
<circle cx="683" cy="89" r="1" fill="#27AAE1"/>
<circle cx="705" cy="89" r="1" fill="#27AAE1"/>
<circle cx="727" cy="89" r="1" fill="#27AAE1"/>
<circle cx="749" cy="89" r="1" fill="#27AAE1"/>
<circle cx="771" cy="89" r="1" fill="#27AAE1"/>
<circle cx="793" cy="89" r="1" fill="#27AAE1"/>
<circle cx="815" cy="89" r="1" fill="#27AAE1"/>
<circle cx="837" cy="89" r="1" fill="#27AAE1"/>
<circle cx="859" cy="89" r="1" fill="#27AAE1"/>
<circle cx="881" cy="89" r="1" fill="#27AAE1"/>
<circle cx="903" cy="89" r="1" fill="#27AAE1"/>
<circle cx="925" cy="89" r="1" fill="#27AAE1"/>
<circle cx="947" cy="89" r="1" fill="#27AAE1"/>
<circle cx="969" cy="89" r="1" fill="#27AAE1"/>
<circle cx="991" cy="89" r="1" fill="#27AAE1"/>
<circle cx="1013" cy="89" r="1" fill="#27AAE1"/>
<circle cx="1" cy="111" r="1" fill="#27AAE1"/>
<circle cx="23" cy="111" r="1" fill="#27AAE1"/>
<circle cx="45" cy="111" r="1" fill="#27AAE1"/>
<circle cx="67" cy="111" r="1" fill="#27AAE1"/>
<circle cx="89" cy="111" r="1" fill="#27AAE1"/>
<circle cx="111" cy="111" r="1" fill="#27AAE1"/>
<circle cx="133" cy="111" r="1" fill="#27AAE1"/>
<circle cx="155" cy="111" r="1" fill="#27AAE1"/>
<circle cx="177" cy="111" r="1" fill="#27AAE1"/>
<circle cx="199" cy="111" r="1" fill="#27AAE1"/>
<circle cx="221" cy="111" r="1" fill="#27AAE1"/>
<circle cx="243" cy="111" r="1" fill="#27AAE1"/>
<circle cx="265" cy="111" r="1" fill="#27AAE1"/>
<circle cx="287" cy="111" r="1" fill="#27AAE1"/>
<circle cx="309" cy="111" r="1" fill="#27AAE1"/>
<circle cx="331" cy="111" r="1" fill="#27AAE1"/>
<circle cx="947" cy="111" r="1" fill="#27AAE1"/>
<circle cx="969" cy="111" r="1" fill="#27AAE1"/>
<circle cx="991" cy="111" r="1" fill="#27AAE1"/>
<circle cx="1013" cy="111" r="1" fill="#27AAE1"/>
<circle cx="1" cy="133" r="1" fill="#27AAE1"/>
<circle cx="23" cy="133" r="1" fill="#27AAE1"/>
<circle cx="45" cy="133" r="1" fill="#27AAE1"/>
<circle cx="67" cy="133" r="1" fill="#27AAE1"/>
<circle cx="89" cy="133" r="1" fill="#27AAE1"/>
<circle cx="111" cy="133" r="1" fill="#27AAE1"/>
<circle cx="133" cy="133" r="1" fill="#27AAE1"/>
<circle cx="155" cy="133" r="1" fill="#27AAE1"/>
<circle cx="177" cy="133" r="1" fill="#27AAE1"/>
<circle cx="199" cy="133" r="1" fill="#27AAE1"/>
<circle cx="221" cy="133" r="1" fill="#27AAE1"/>
<circle cx="243" cy="133" r="1" fill="#27AAE1"/>
<circle cx="265" cy="133" r="1" fill="#27AAE1"/>
<circle cx="287" cy="133" r="1" fill="#27AAE1"/>
<circle cx="309" cy="133" r="1" fill="#27AAE1"/>
<circle cx="331" cy="133" r="1" fill="#27AAE1"/>
<circle cx="947" cy="133" r="1" fill="#27AAE1"/>
<circle cx="969" cy="133" r="1" fill="#27AAE1"/>
<circle cx="991" cy="133" r="1" fill="#27AAE1"/>
<circle cx="1013" cy="133" r="1" fill="#27AAE1"/>
<circle cx="1" cy="155" r="1" fill="#27AAE1"/>
<circle cx="23" cy="155" r="1" fill="#27AAE1"/>
<circle cx="45" cy="155" r="1" fill="#27AAE1"/>
<circle cx="67" cy="155" r="1" fill="#27AAE1"/>
<circle cx="89" cy="155" r="1" fill="#27AAE1"/>
<circle cx="111" cy="155" r="1" fill="#27AAE1"/>
<circle cx="133" cy="155" r="1" fill="#27AAE1"/>
<circle cx="155" cy="155" r="1" fill="#27AAE1"/>
<circle cx="177" cy="155" r="1" fill="#27AAE1"/>
<circle cx="199" cy="155" r="1" fill="#27AAE1"/>
<circle cx="221" cy="155" r="1" fill="#27AAE1"/>
<circle cx="243" cy="155" r="1" fill="#27AAE1"/>
<circle cx="265" cy="155" r="1" fill="#27AAE1"/>
<circle cx="287" cy="155" r="1" fill="#27AAE1"/>
<circle cx="309" cy="155" r="1" fill="#27AAE1"/>
<circle cx="331" cy="155" r="1" fill="#27AAE1"/>
<circle cx="947" cy="155" r="1" fill="#27AAE1"/>
<circle cx="969" cy="155" r="1" fill="#27AAE1"/>
<circle cx="991" cy="155" r="1" fill="#27AAE1"/>
<circle cx="1013" cy="155" r="1" fill="#27AAE1"/>
<circle cx="1" cy="177" r="1" fill="#27AAE1"/>
<circle cx="23" cy="177" r="1" fill="#27AAE1"/>
<circle cx="45" cy="177" r="1" fill="#27AAE1"/>
<circle cx="67" cy="177" r="1" fill="#27AAE1"/>
<circle cx="89" cy="177" r="1" fill="#27AAE1"/>
<circle cx="111" cy="177" r="1" fill="#27AAE1"/>
<circle cx="133" cy="177" r="1" fill="#27AAE1"/>
<circle cx="155" cy="177" r="1" fill="#27AAE1"/>
<circle cx="177" cy="177" r="1" fill="#27AAE1"/>
<circle cx="199" cy="177" r="1" fill="#27AAE1"/>
<circle cx="221" cy="177" r="1" fill="#27AAE1"/>
<circle cx="243" cy="177" r="1" fill="#27AAE1"/>
<circle cx="265" cy="177" r="1" fill="#27AAE1"/>
<circle cx="287" cy="177" r="1" fill="#27AAE1"/>
<circle cx="309" cy="177" r="1" fill="#27AAE1"/>
<circle cx="331" cy="177" r="1" fill="#27AAE1"/>
<circle cx="793" cy="177" r="1" fill="#27AAE1"/>
<circle cx="815" cy="177" r="1" fill="#27AAE1"/>
<circle cx="837" cy="177" r="1" fill="#27AAE1"/>
<circle cx="859" cy="177" r="1" fill="#27AAE1"/>
<circle cx="881" cy="177" r="1" fill="#27AAE1"/>
<circle cx="903" cy="177" r="1" fill="#27AAE1"/>
<circle cx="925" cy="177" r="1" fill="#27AAE1"/>
<circle cx="947" cy="177" r="1" fill="#27AAE1"/>
<circle cx="969" cy="177" r="1" fill="#27AAE1"/>
<circle cx="991" cy="177" r="1" fill="#27AAE1"/>
<circle cx="1013" cy="177" r="1" fill="#27AAE1"/>
<circle cx="1" cy="199" r="1" fill="#27AAE1"/>
<circle cx="23" cy="199" r="1" fill="#27AAE1"/>
<circle cx="45" cy="199" r="1" fill="#27AAE1"/>
<circle cx="67" cy="199" r="1" fill="#27AAE1"/>
<circle cx="89" cy="199" r="1" fill="#27AAE1"/>
<circle cx="111" cy="199" r="1" fill="#27AAE1"/>
<circle cx="133" cy="199" r="1" fill="#27AAE1"/>
<circle cx="155" cy="199" r="1" fill="#27AAE1"/>
<circle cx="177" cy="199" r="1" fill="#27AAE1"/>
<circle cx="199" cy="199" r="1" fill="#27AAE1"/>
<circle cx="221" cy="199" r="1" fill="#27AAE1"/>
<circle cx="243" cy="199" r="1" fill="#27AAE1"/>
<circle cx="265" cy="199" r="1" fill="#27AAE1"/>
<circle cx="287" cy="199" r="1" fill="#27AAE1"/>
<circle cx="309" cy="199" r="1" fill="#27AAE1"/>
<circle cx="331" cy="199" r="1" fill="#27AAE1"/>
<circle cx="793" cy="199" r="1" fill="#27AAE1"/>
<circle cx="815" cy="199" r="1" fill="#27AAE1"/>
<circle cx="837" cy="199" r="1" fill="#27AAE1"/>
<circle cx="859" cy="199" r="1" fill="#27AAE1"/>
<circle cx="881" cy="199" r="1" fill="#27AAE1"/>
<circle cx="903" cy="199" r="1" fill="#27AAE1"/>
<circle cx="925" cy="199" r="1" fill="#27AAE1"/>
<circle cx="947" cy="199" r="1" fill="#27AAE1"/>
<circle cx="969" cy="199" r="1" fill="#27AAE1"/>
<circle cx="991" cy="199" r="1" fill="#27AAE1"/>
<circle cx="1013" cy="199" r="1" fill="#27AAE1"/>
<circle cx="1" cy="221" r="1" fill="#27AAE1"/>
<circle cx="23" cy="221" r="1" fill="#27AAE1"/>
<circle cx="45" cy="221" r="1" fill="#27AAE1"/>
<circle cx="67" cy="221" r="1" fill="#27AAE1"/>
<circle cx="89" cy="221" r="1" fill="#27AAE1"/>
<circle cx="111" cy="221" r="1" fill="#27AAE1"/>
<circle cx="133" cy="221" r="1" fill="#27AAE1"/>
<circle cx="155" cy="221" r="1" fill="#27AAE1"/>
<circle cx="177" cy="221" r="1" fill="#27AAE1"/>
<circle cx="199" cy="221" r="1" fill="#27AAE1"/>
<circle cx="221" cy="221" r="1" fill="#27AAE1"/>
<circle cx="243" cy="221" r="1" fill="#27AAE1"/>
<circle cx="265" cy="221" r="1" fill="#27AAE1"/>
<circle cx="287" cy="221" r="1" fill="#27AAE1"/>
<circle cx="309" cy="221" r="1" fill="#27AAE1"/>
<circle cx="331" cy="221" r="1" fill="#27AAE1"/>
<circle cx="793" cy="221" r="1" fill="#27AAE1"/>
<circle cx="815" cy="221" r="1" fill="#27AAE1"/>
<circle cx="837" cy="221" r="1" fill="#27AAE1"/>
<circle cx="859" cy="221" r="1" fill="#27AAE1"/>
<circle cx="881" cy="221" r="1" fill="#27AAE1"/>
<circle cx="903" cy="221" r="1" fill="#27AAE1"/>
<circle cx="925" cy="221" r="1" fill="#27AAE1"/>
<circle cx="947" cy="221" r="1" fill="#27AAE1"/>
<circle cx="969" cy="221" r="1" fill="#27AAE1"/>
<circle cx="991" cy="221" r="1" fill="#27AAE1"/>
<circle cx="1013" cy="221" r="1" fill="#27AAE1"/>
<circle cx="1" cy="243" r="1" fill="#27AAE1"/>
<circle cx="23" cy="243" r="1" fill="#27AAE1"/>
<circle cx="45" cy="243" r="1" fill="#27AAE1"/>
<circle cx="67" cy="243" r="1" fill="#27AAE1"/>
<circle cx="89" cy="243" r="1" fill="#27AAE1"/>
<circle cx="111" cy="243" r="1" fill="#27AAE1"/>
<circle cx="133" cy="243" r="1" fill="#27AAE1"/>
<circle cx="155" cy="243" r="1" fill="#27AAE1"/>
<circle cx="177" cy="243" r="1" fill="#27AAE1"/>
<circle cx="199" cy="243" r="1" fill="#27AAE1"/>
<circle cx="221" cy="243" r="1" fill="#27AAE1"/>
<circle cx="243" cy="243" r="1" fill="#27AAE1"/>
<circle cx="265" cy="243" r="1" fill="#27AAE1"/>
<circle cx="287" cy="243" r="1" fill="#27AAE1"/>
<circle cx="309" cy="243" r="1" fill="#27AAE1"/>
<circle cx="331" cy="243" r="1" fill="#27AAE1"/>
<circle cx="353" cy="243" r="1" fill="#27AAE1"/>
<circle cx="375" cy="243" r="1" fill="#27AAE1"/>
<circle cx="397" cy="243" r="1" fill="#27AAE1"/>
<circle cx="419" cy="243" r="1" fill="#27AAE1"/>
<circle cx="441" cy="243" r="1" fill="#27AAE1"/>
<circle cx="463" cy="243" r="1" fill="#27AAE1"/>
<circle cx="485" cy="243" r="1" fill="#27AAE1"/>
<circle cx="507" cy="243" r="1" fill="#27AAE1"/>
<circle cx="529" cy="243" r="1" fill="#27AAE1"/>
<circle cx="551" cy="243" r="1" fill="#27AAE1"/>
<circle cx="573" cy="243" r="1" fill="#27AAE1"/>
<circle cx="595" cy="243" r="1" fill="#27AAE1"/>
<circle cx="617" cy="243" r="1" fill="#27AAE1"/>
<circle cx="639" cy="243" r="1" fill="#27AAE1"/>
<circle cx="661" cy="243" r="1" fill="#27AAE1"/>
<circle cx="683" cy="243" r="1" fill="#27AAE1"/>
<circle cx="705" cy="243" r="1" fill="#27AAE1"/>
<circle cx="727" cy="243" r="1" fill="#27AAE1"/>
<circle cx="749" cy="243" r="1" fill="#27AAE1"/>
<circle cx="771" cy="243" r="1" fill="#27AAE1"/>
<circle cx="793" cy="243" r="1" fill="#27AAE1"/>
<circle cx="815" cy="243" r="1" fill="#27AAE1"/>
<circle cx="837" cy="243" r="1" fill="#27AAE1"/>
<circle cx="859" cy="243" r="1" fill="#27AAE1"/>
<circle cx="881" cy="243" r="1" fill="#27AAE1"/>
<circle cx="903" cy="243" r="1" fill="#27AAE1"/>
<circle cx="925" cy="243" r="1" fill="#27AAE1"/>
<circle cx="947" cy="243" r="1" fill="#27AAE1"/>
<circle cx="969" cy="243" r="1" fill="#27AAE1"/>
<circle cx="991" cy="243" r="1" fill="#27AAE1"/>
<circle cx="1013" cy="243" r="1" fill="#27AAE1"/>
<circle cx="1" cy="265" r="1" fill="#27AAE1"/>
<circle cx="23" cy="265" r="1" fill="#27AAE1"/>
<circle cx="45" cy="265" r="1" fill="#27AAE1"/>
<circle cx="67" cy="265" r="1" fill="#27AAE1"/>
<circle cx="89" cy="265" r="1" fill="#27AAE1"/>
<circle cx="111" cy="265" r="1" fill="#27AAE1"/>
<circle cx="133" cy="265" r="1" fill="#27AAE1"/>
<circle cx="155" cy="265" r="1" fill="#27AAE1"/>
<circle cx="177" cy="265" r="1" fill="#27AAE1"/>
<circle cx="199" cy="265" r="1" fill="#27AAE1"/>
<circle cx="221" cy="265" r="1" fill="#27AAE1"/>
<circle cx="243" cy="265" r="1" fill="#27AAE1"/>
<circle cx="265" cy="265" r="1" fill="#27AAE1"/>
<circle cx="287" cy="265" r="1" fill="#27AAE1"/>
<circle cx="309" cy="265" r="1" fill="#27AAE1"/>
<circle cx="947" cy="265" r="1" fill="#27AAE1"/>
<circle cx="969" cy="265" r="1" fill="#27AAE1"/>
<circle cx="991" cy="265" r="1" fill="#27AAE1"/>
<circle cx="1013" cy="265" r="1" fill="#27AAE1"/>
<circle cx="1" cy="287" r="1" fill="#27AAE1"/>
<circle cx="23" cy="287" r="1" fill="#27AAE1"/>
<circle cx="45" cy="287" r="1" fill="#27AAE1"/>
<circle cx="67" cy="287" r="1" fill="#27AAE1"/>
<circle cx="89" cy="287" r="1" fill="#27AAE1"/>
<circle cx="111" cy="287" r="1" fill="#27AAE1"/>
<circle cx="133" cy="287" r="1" fill="#27AAE1"/>
<circle cx="155" cy="287" r="1" fill="#27AAE1"/>
<circle cx="177" cy="287" r="1" fill="#27AAE1"/>
<circle cx="199" cy="287" r="1" fill="#27AAE1"/>
<circle cx="221" cy="287" r="1" fill="#27AAE1"/>
<circle cx="243" cy="287" r="1" fill="#27AAE1"/>
<circle cx="265" cy="287" r="1" fill="#27AAE1"/>
<circle cx="287" cy="287" r="1" fill="#27AAE1"/>
<circle cx="309" cy="287" r="1" fill="#27AAE1"/>
<circle cx="947" cy="287" r="1" fill="#27AAE1"/>
<circle cx="969" cy="287" r="1" fill="#27AAE1"/>
<circle cx="991" cy="287" r="1" fill="#27AAE1"/>
<circle cx="1013" cy="287" r="1" fill="#27AAE1"/>
<circle cx="1" cy="309" r="1" fill="#27AAE1"/>
<circle cx="23" cy="309" r="1" fill="#27AAE1"/>
<circle cx="45" cy="309" r="1" fill="#27AAE1"/>
<circle cx="67" cy="309" r="1" fill="#27AAE1"/>
<circle cx="89" cy="309" r="1" fill="#27AAE1"/>
<circle cx="111" cy="309" r="1" fill="#27AAE1"/>
<circle cx="133" cy="309" r="1" fill="#27AAE1"/>
<circle cx="155" cy="309" r="1" fill="#27AAE1"/>
<circle cx="177" cy="309" r="1" fill="#27AAE1"/>
<circle cx="199" cy="309" r="1" fill="#27AAE1"/>
<circle cx="221" cy="309" r="1" fill="#27AAE1"/>
<circle cx="243" cy="309" r="1" fill="#27AAE1"/>
<circle cx="265" cy="309" r="1" fill="#27AAE1"/>
<circle cx="287" cy="309" r="1" fill="#27AAE1"/>
<circle cx="309" cy="309" r="1" fill="#27AAE1"/>
<circle cx="331" cy="309" r="1" fill="#27AAE1"/>
<circle cx="353" cy="309" r="1" fill="#27AAE1"/>
<circle cx="375" cy="309" r="1" fill="#27AAE1"/>
<circle cx="397" cy="309" r="1" fill="#27AAE1"/>
<circle cx="419" cy="309" r="1" fill="#27AAE1"/>
<circle cx="441" cy="309" r="1" fill="#27AAE1"/>
<circle cx="463" cy="309" r="1" fill="#27AAE1"/>
<circle cx="485" cy="309" r="1" fill="#27AAE1"/>
<circle cx="507" cy="309" r="1" fill="#27AAE1"/>
<circle cx="529" cy="309" r="1" fill="#27AAE1"/>
<circle cx="551" cy="309" r="1" fill="#27AAE1"/>
<circle cx="573" cy="309" r="1" fill="#27AAE1"/>
<circle cx="595" cy="309" r="1" fill="#27AAE1"/>
<circle cx="617" cy="309" r="1" fill="#27AAE1"/>
<circle cx="639" cy="309" r="1" fill="#27AAE1"/>
<circle cx="661" cy="309" r="1" fill="#27AAE1"/>
<circle cx="683" cy="309" r="1" fill="#27AAE1"/>
<circle cx="705" cy="309" r="1" fill="#27AAE1"/>
<circle cx="727" cy="309" r="1" fill="#27AAE1"/>
<circle cx="749" cy="309" r="1" fill="#27AAE1"/>
<circle cx="771" cy="309" r="1" fill="#27AAE1"/>
<circle cx="793" cy="309" r="1" fill="#27AAE1"/>
<circle cx="815" cy="309" r="1" fill="#27AAE1"/>
<circle cx="837" cy="309" r="1" fill="#27AAE1"/>
<circle cx="859" cy="309" r="1" fill="#27AAE1"/>
<circle cx="881" cy="309" r="1" fill="#27AAE1"/>
<circle cx="903" cy="309" r="1" fill="#27AAE1"/>
<circle cx="925" cy="309" r="1" fill="#27AAE1"/>
<circle cx="947" cy="309" r="1" fill="#27AAE1"/>
<circle cx="969" cy="309" r="1" fill="#27AAE1"/>
<circle cx="991" cy="309" r="1" fill="#27AAE1"/>
<circle cx="1013" cy="309" r="1" fill="#27AAE1"/>
<circle cx="1" cy="331" r="1" fill="#27AAE1"/>
<circle cx="23" cy="331" r="1" fill="#27AAE1"/>
<circle cx="45" cy="331" r="1" fill="#27AAE1"/>
<circle cx="67" cy="331" r="1" fill="#27AAE1"/>
<circle cx="89" cy="331" r="1" fill="#27AAE1"/>
<circle cx="111" cy="331" r="1" fill="#27AAE1"/>
<circle cx="133" cy="331" r="1" fill="#27AAE1"/>
<circle cx="155" cy="331" r="1" fill="#27AAE1"/>
<circle cx="177" cy="331" r="1" fill="#27AAE1"/>
<circle cx="199" cy="331" r="1" fill="#27AAE1"/>
<circle cx="221" cy="331" r="1" fill="#27AAE1"/>
<circle cx="243" cy="331" r="1" fill="#27AAE1"/>
<circle cx="265" cy="331" r="1" fill="#27AAE1"/>
<circle cx="287" cy="331" r="1" fill="#27AAE1"/>
<circle cx="309" cy="331" r="1" fill="#27AAE1"/>
<circle cx="331" cy="331" r="1" fill="#27AAE1"/>
<circle cx="353" cy="331" r="1" fill="#27AAE1"/>
<circle cx="375" cy="331" r="1" fill="#27AAE1"/>
<circle cx="397" cy="331" r="1" fill="#27AAE1"/>
<circle cx="419" cy="331" r="1" fill="#27AAE1"/>
<circle cx="441" cy="331" r="1" fill="#27AAE1"/>
<circle cx="463" cy="331" r="1" fill="#27AAE1"/>
<circle cx="485" cy="331" r="1" fill="#27AAE1"/>
<circle cx="507" cy="331" r="1" fill="#27AAE1"/>
<circle cx="529" cy="331" r="1" fill="#27AAE1"/>
<circle cx="551" cy="331" r="1" fill="#27AAE1"/>
<circle cx="573" cy="331" r="1" fill="#27AAE1"/>
<circle cx="595" cy="331" r="1" fill="#27AAE1"/>
<circle cx="617" cy="331" r="1" fill="#27AAE1"/>
<circle cx="639" cy="331" r="1" fill="#27AAE1"/>
<circle cx="661" cy="331" r="1" fill="#27AAE1"/>
<circle cx="683" cy="331" r="1" fill="#27AAE1"/>
<circle cx="705" cy="331" r="1" fill="#27AAE1"/>
<circle cx="727" cy="331" r="1" fill="#27AAE1"/>
<circle cx="749" cy="331" r="1" fill="#27AAE1"/>
<circle cx="771" cy="331" r="1" fill="#27AAE1"/>
<circle cx="793" cy="331" r="1" fill="#27AAE1"/>
<circle cx="815" cy="331" r="1" fill="#27AAE1"/>
<circle cx="837" cy="331" r="1" fill="#27AAE1"/>
<circle cx="859" cy="331" r="1" fill="#27AAE1"/>
<circle cx="881" cy="331" r="1" fill="#27AAE1"/>
<circle cx="903" cy="331" r="1" fill="#27AAE1"/>
<circle cx="925" cy="331" r="1" fill="#27AAE1"/>
<circle cx="947" cy="331" r="1" fill="#27AAE1"/>
<circle cx="969" cy="331" r="1" fill="#27AAE1"/>
<circle cx="991" cy="331" r="1" fill="#27AAE1"/>
<circle cx="1013" cy="331" r="1" fill="#27AAE1"/>
<circle cx="1" cy="353" r="1" fill="#27AAE1"/>
<circle cx="23" cy="353" r="1" fill="#27AAE1"/>
<circle cx="45" cy="353" r="1" fill="#27AAE1"/>
<circle cx="67" cy="353" r="1" fill="#27AAE1"/>
<circle cx="89" cy="353" r="1" fill="#27AAE1"/>
<circle cx="111" cy="353" r="1" fill="#27AAE1"/>
<circle cx="133" cy="353" r="1" fill="#27AAE1"/>
<circle cx="155" cy="353" r="1" fill="#27AAE1"/>
<circle cx="177" cy="353" r="1" fill="#27AAE1"/>
<circle cx="199" cy="353" r="1" fill="#27AAE1"/>
<circle cx="221" cy="353" r="1" fill="#27AAE1"/>
<circle cx="243" cy="353" r="1" fill="#27AAE1"/>
<circle cx="265" cy="353" r="1" fill="#27AAE1"/>
<circle cx="287" cy="353" r="1" fill="#27AAE1"/>
<circle cx="309" cy="353" r="1" fill="#27AAE1"/>
<circle cx="331" cy="353" r="1" fill="#27AAE1"/>
<circle cx="353" cy="353" r="1" fill="#27AAE1"/>
<circle cx="375" cy="353" r="1" fill="#27AAE1"/>
<circle cx="397" cy="353" r="1" fill="#27AAE1"/>
<circle cx="419" cy="353" r="1" fill="#27AAE1"/>
<circle cx="441" cy="353" r="1" fill="#27AAE1"/>
<circle cx="463" cy="353" r="1" fill="#27AAE1"/>
<circle cx="485" cy="353" r="1" fill="#27AAE1"/>
<circle cx="507" cy="353" r="1" fill="#27AAE1"/>
<circle cx="529" cy="353" r="1" fill="#27AAE1"/>
<circle cx="551" cy="353" r="1" fill="#27AAE1"/>
<circle cx="573" cy="353" r="1" fill="#27AAE1"/>
<circle cx="595" cy="353" r="1" fill="#27AAE1"/>
<circle cx="617" cy="353" r="1" fill="#27AAE1"/>
<circle cx="639" cy="353" r="1" fill="#27AAE1"/>
<circle cx="661" cy="353" r="1" fill="#27AAE1"/>
<circle cx="683" cy="353" r="1" fill="#27AAE1"/>
<circle cx="705" cy="353" r="1" fill="#27AAE1"/>
<circle cx="727" cy="353" r="1" fill="#27AAE1"/>
<circle cx="749" cy="353" r="1" fill="#27AAE1"/>
<circle cx="771" cy="353" r="1" fill="#27AAE1"/>
<circle cx="793" cy="353" r="1" fill="#27AAE1"/>
<circle cx="815" cy="353" r="1" fill="#27AAE1"/>
<circle cx="837" cy="353" r="1" fill="#27AAE1"/>
<circle cx="859" cy="353" r="1" fill="#27AAE1"/>
<circle cx="881" cy="353" r="1" fill="#27AAE1"/>
<circle cx="903" cy="353" r="1" fill="#27AAE1"/>
<circle cx="925" cy="353" r="1" fill="#27AAE1"/>
<circle cx="947" cy="353" r="1" fill="#27AAE1"/>
<circle cx="969" cy="353" r="1" fill="#27AAE1"/>
<circle cx="991" cy="353" r="1" fill="#27AAE1"/>
<circle cx="1013" cy="353" r="1" fill="#27AAE1"/>
<circle cx="1" cy="375" r="1" fill="#27AAE1"/>
<circle cx="23" cy="375" r="1" fill="#27AAE1"/>
<circle cx="45" cy="375" r="1" fill="#27AAE1"/>
<circle cx="67" cy="375" r="1" fill="#27AAE1"/>
<circle cx="89" cy="375" r="1" fill="#27AAE1"/>
<circle cx="111" cy="375" r="1" fill="#27AAE1"/>
<circle cx="133" cy="375" r="1" fill="#27AAE1"/>
<circle cx="155" cy="375" r="1" fill="#27AAE1"/>
<circle cx="177" cy="375" r="1" fill="#27AAE1"/>
<circle cx="199" cy="375" r="1" fill="#27AAE1"/>
<circle cx="221" cy="375" r="1" fill="#27AAE1"/>
<circle cx="243" cy="375" r="1" fill="#27AAE1"/>
<circle cx="265" cy="375" r="1" fill="#27AAE1"/>
<circle cx="287" cy="375" r="1" fill="#27AAE1"/>
<circle cx="309" cy="375" r="1" fill="#27AAE1"/>
<circle cx="331" cy="375" r="1" fill="#27AAE1"/>
<circle cx="353" cy="375" r="1" fill="#27AAE1"/>
<circle cx="375" cy="375" r="1" fill="#27AAE1"/>
<circle cx="397" cy="375" r="1" fill="#27AAE1"/>
<circle cx="419" cy="375" r="1" fill="#27AAE1"/>
<circle cx="441" cy="375" r="1" fill="#27AAE1"/>
<circle cx="463" cy="375" r="1" fill="#27AAE1"/>
<circle cx="485" cy="375" r="1" fill="#27AAE1"/>
<circle cx="507" cy="375" r="1" fill="#27AAE1"/>
<circle cx="529" cy="375" r="1" fill="#27AAE1"/>
<circle cx="551" cy="375" r="1" fill="#27AAE1"/>
<circle cx="573" cy="375" r="1" fill="#27AAE1"/>
<circle cx="595" cy="375" r="1" fill="#27AAE1"/>
<circle cx="617" cy="375" r="1" fill="#27AAE1"/>
<circle cx="639" cy="375" r="1" fill="#27AAE1"/>
<circle cx="661" cy="375" r="1" fill="#27AAE1"/>
<circle cx="683" cy="375" r="1" fill="#27AAE1"/>
<circle cx="705" cy="375" r="1" fill="#27AAE1"/>
<circle cx="727" cy="375" r="1" fill="#27AAE1"/>
<circle cx="749" cy="375" r="1" fill="#27AAE1"/>
<circle cx="771" cy="375" r="1" fill="#27AAE1"/>
<circle cx="793" cy="375" r="1" fill="#27AAE1"/>
<circle cx="815" cy="375" r="1" fill="#27AAE1"/>
<circle cx="837" cy="375" r="1" fill="#27AAE1"/>
<circle cx="859" cy="375" r="1" fill="#27AAE1"/>
<circle cx="881" cy="375" r="1" fill="#27AAE1"/>
<circle cx="903" cy="375" r="1" fill="#27AAE1"/>
<circle cx="925" cy="375" r="1" fill="#27AAE1"/>
<circle cx="947" cy="375" r="1" fill="#27AAE1"/>
<circle cx="969" cy="375" r="1" fill="#27AAE1"/>
<circle cx="991" cy="375" r="1" fill="#27AAE1"/>
<circle cx="1013" cy="375" r="1" fill="#27AAE1"/>
<circle cx="1" cy="397" r="1" fill="#27AAE1"/>
<circle cx="23" cy="397" r="1" fill="#27AAE1"/>
<circle cx="45" cy="397" r="1" fill="#27AAE1"/>
<circle cx="67" cy="397" r="1" fill="#27AAE1"/>
<circle cx="89" cy="397" r="1" fill="#27AAE1"/>
<circle cx="111" cy="397" r="1" fill="#27AAE1"/>
<circle cx="133" cy="397" r="1" fill="#27AAE1"/>
<circle cx="155" cy="397" r="1" fill="#27AAE1"/>
<circle cx="177" cy="397" r="1" fill="#27AAE1"/>
<circle cx="199" cy="397" r="1" fill="#27AAE1"/>
<circle cx="221" cy="397" r="1" fill="#27AAE1"/>
<circle cx="243" cy="397" r="1" fill="#27AAE1"/>
<circle cx="265" cy="397" r="1" fill="#27AAE1"/>
<circle cx="287" cy="397" r="1" fill="#27AAE1"/>
<circle cx="309" cy="397" r="1" fill="#27AAE1"/>
<circle cx="331" cy="397" r="1" fill="#27AAE1"/>
<circle cx="353" cy="397" r="1" fill="#27AAE1"/>
<circle cx="375" cy="397" r="1" fill="#27AAE1"/>
<circle cx="397" cy="397" r="1" fill="#27AAE1"/>
<circle cx="419" cy="397" r="1" fill="#27AAE1"/>
<circle cx="441" cy="397" r="1" fill="#27AAE1"/>
<circle cx="463" cy="397" r="1" fill="#27AAE1"/>
<circle cx="485" cy="397" r="1" fill="#27AAE1"/>
<circle cx="507" cy="397" r="1" fill="#27AAE1"/>
<circle cx="529" cy="397" r="1" fill="#27AAE1"/>
<circle cx="551" cy="397" r="1" fill="#27AAE1"/>
<circle cx="573" cy="397" r="1" fill="#27AAE1"/>
<circle cx="595" cy="397" r="1" fill="#27AAE1"/>
<circle cx="617" cy="397" r="1" fill="#27AAE1"/>
<circle cx="639" cy="397" r="1" fill="#27AAE1"/>
<circle cx="661" cy="397" r="1" fill="#27AAE1"/>
<circle cx="683" cy="397" r="1" fill="#27AAE1"/>
<circle cx="705" cy="397" r="1" fill="#27AAE1"/>
<circle cx="727" cy="397" r="1" fill="#27AAE1"/>
<circle cx="749" cy="397" r="1" fill="#27AAE1"/>
<circle cx="771" cy="397" r="1" fill="#27AAE1"/>
<circle cx="793" cy="397" r="1" fill="#27AAE1"/>
<circle cx="815" cy="397" r="1" fill="#27AAE1"/>
<circle cx="837" cy="397" r="1" fill="#27AAE1"/>
<circle cx="859" cy="397" r="1" fill="#27AAE1"/>
<circle cx="881" cy="397" r="1" fill="#27AAE1"/>
<circle cx="903" cy="397" r="1" fill="#27AAE1"/>
<circle cx="925" cy="397" r="1" fill="#27AAE1"/>
<circle cx="947" cy="397" r="1" fill="#27AAE1"/>
<circle cx="969" cy="397" r="1" fill="#27AAE1"/>
<circle cx="991" cy="397" r="1" fill="#27AAE1"/>
<circle cx="1013" cy="397" r="1" fill="#27AAE1"/>
<circle cx="1" cy="419" r="1" fill="#27AAE1"/>
<circle cx="23" cy="419" r="1" fill="#27AAE1"/>
<circle cx="45" cy="419" r="1" fill="#27AAE1"/>
<circle cx="67" cy="419" r="1" fill="#27AAE1"/>
<circle cx="89" cy="419" r="1" fill="#27AAE1"/>
<circle cx="111" cy="419" r="1" fill="#27AAE1"/>
<circle cx="133" cy="419" r="1" fill="#27AAE1"/>
<circle cx="155" cy="419" r="1" fill="#27AAE1"/>
<circle cx="177" cy="419" r="1" fill="#27AAE1"/>
<circle cx="199" cy="419" r="1" fill="#27AAE1"/>
<circle cx="221" cy="419" r="1" fill="#27AAE1"/>
<circle cx="243" cy="419" r="1" fill="#27AAE1"/>
<circle cx="265" cy="419" r="1" fill="#27AAE1"/>
<circle cx="287" cy="419" r="1" fill="#27AAE1"/>
<circle cx="309" cy="419" r="1" fill="#27AAE1"/>
<circle cx="331" cy="419" r="1" fill="#27AAE1"/>
<circle cx="353" cy="419" r="1" fill="#27AAE1"/>
<circle cx="375" cy="419" r="1" fill="#27AAE1"/>
<circle cx="397" cy="419" r="1" fill="#27AAE1"/>
<circle cx="419" cy="419" r="1" fill="#27AAE1"/>
<circle cx="441" cy="419" r="1" fill="#27AAE1"/>
<circle cx="463" cy="419" r="1" fill="#27AAE1"/>
<circle cx="485" cy="419" r="1" fill="#27AAE1"/>
<circle cx="507" cy="419" r="1" fill="#27AAE1"/>
<circle cx="529" cy="419" r="1" fill="#27AAE1"/>
<circle cx="551" cy="419" r="1" fill="#27AAE1"/>
<circle cx="573" cy="419" r="1" fill="#27AAE1"/>
<circle cx="595" cy="419" r="1" fill="#27AAE1"/>
<circle cx="617" cy="419" r="1" fill="#27AAE1"/>
<circle cx="639" cy="419" r="1" fill="#27AAE1"/>
<circle cx="661" cy="419" r="1" fill="#27AAE1"/>
<circle cx="683" cy="419" r="1" fill="#27AAE1"/>
<circle cx="705" cy="419" r="1" fill="#27AAE1"/>
<circle cx="727" cy="419" r="1" fill="#27AAE1"/>
<circle cx="749" cy="419" r="1" fill="#27AAE1"/>
<circle cx="771" cy="419" r="1" fill="#27AAE1"/>
<circle cx="793" cy="419" r="1" fill="#27AAE1"/>
<circle cx="815" cy="419" r="1" fill="#27AAE1"/>
<circle cx="837" cy="419" r="1" fill="#27AAE1"/>
<circle cx="859" cy="419" r="1" fill="#27AAE1"/>
<circle cx="881" cy="419" r="1" fill="#27AAE1"/>
<circle cx="903" cy="419" r="1" fill="#27AAE1"/>
<circle cx="925" cy="419" r="1" fill="#27AAE1"/>
<circle cx="947" cy="419" r="1" fill="#27AAE1"/>
<circle cx="969" cy="419" r="1" fill="#27AAE1"/>
<circle cx="991" cy="419" r="1" fill="#27AAE1"/>
<circle cx="1013" cy="419" r="1" fill="#27AAE1"/>
<circle cx="1" cy="441" r="1" fill="#27AAE1"/>
<circle cx="23" cy="441" r="1" fill="#27AAE1"/>
<circle cx="45" cy="441" r="1" fill="#27AAE1"/>
<circle cx="67" cy="441" r="1" fill="#27AAE1"/>
<circle cx="89" cy="441" r="1" fill="#27AAE1"/>
<circle cx="111" cy="441" r="1" fill="#27AAE1"/>
<circle cx="133" cy="441" r="1" fill="#27AAE1"/>
<circle cx="155" cy="441" r="1" fill="#27AAE1"/>
<circle cx="177" cy="441" r="1" fill="#27AAE1"/>
<circle cx="199" cy="441" r="1" fill="#27AAE1"/>
<circle cx="221" cy="441" r="1" fill="#27AAE1"/>
<circle cx="243" cy="441" r="1" fill="#27AAE1"/>
<circle cx="265" cy="441" r="1" fill="#27AAE1"/>
<circle cx="287" cy="441" r="1" fill="#27AAE1"/>
<circle cx="309" cy="441" r="1" fill="#27AAE1"/>
<circle cx="331" cy="441" r="1" fill="#27AAE1"/>
<circle cx="353" cy="441" r="1" fill="#27AAE1"/>
<circle cx="375" cy="441" r="1" fill="#27AAE1"/>
<circle cx="397" cy="441" r="1" fill="#27AAE1"/>
<circle cx="419" cy="441" r="1" fill="#27AAE1"/>
<circle cx="441" cy="441" r="1" fill="#27AAE1"/>
<circle cx="463" cy="441" r="1" fill="#27AAE1"/>
<circle cx="485" cy="441" r="1" fill="#27AAE1"/>
<circle cx="507" cy="441" r="1" fill="#27AAE1"/>
<circle cx="529" cy="441" r="1" fill="#27AAE1"/>
<circle cx="551" cy="441" r="1" fill="#27AAE1"/>
<circle cx="573" cy="441" r="1" fill="#27AAE1"/>
<circle cx="595" cy="441" r="1" fill="#27AAE1"/>
<circle cx="617" cy="441" r="1" fill="#27AAE1"/>
<circle cx="639" cy="441" r="1" fill="#27AAE1"/>
<circle cx="661" cy="441" r="1" fill="#27AAE1"/>
<circle cx="683" cy="441" r="1" fill="#27AAE1"/>
<circle cx="705" cy="441" r="1" fill="#27AAE1"/>
<circle cx="727" cy="441" r="1" fill="#27AAE1"/>
<circle cx="749" cy="441" r="1" fill="#27AAE1"/>
<circle cx="771" cy="441" r="1" fill="#27AAE1"/>
<circle cx="793" cy="441" r="1" fill="#27AAE1"/>
<circle cx="815" cy="441" r="1" fill="#27AAE1"/>
<circle cx="837" cy="441" r="1" fill="#27AAE1"/>
<circle cx="859" cy="441" r="1" fill="#27AAE1"/>
<circle cx="881" cy="441" r="1" fill="#27AAE1"/>
<circle cx="903" cy="441" r="1" fill="#27AAE1"/>
<circle cx="925" cy="441" r="1" fill="#27AAE1"/>
<circle cx="947" cy="441" r="1" fill="#27AAE1"/>
<circle cx="969" cy="441" r="1" fill="#27AAE1"/>
<circle cx="991" cy="441" r="1" fill="#27AAE1"/>
<circle cx="1013" cy="441" r="1" fill="#27AAE1"/>
</g>
</svg>
