<svg width="85" height="85" viewBox="0 0 85 85" fill="none" xmlns="http://www.w3.org/2000/svg">
<path d="M83.3645 21.3968L83.3449 21.4144L83.3263 21.433L65.0257 39.7336C63.4753 41.284 63.4753 43.9792 65.0257 45.5296L83.3263 63.8302C84.0957 64.5996 84.0957 66.0285 83.3263 66.7978L66.7012 83.423C65.9318 84.1924 64.5029 84.1924 63.7336 83.423L45.433 65.1225C43.8825 63.572 41.1873 63.572 39.6369 65.1225L21.3363 83.423C20.5669 84.1924 19.1381 84.1924 18.3687 83.423L1.74353 66.7978C0.97416 66.0285 0.974162 64.5996 1.74353 63.8302L20.0441 45.5296C21.5945 43.9792 21.5945 41.284 20.0441 39.7336L1.74353 21.433L1.03643 22.1401L1.74353 21.433C0.974161 20.6636 0.974161 19.2348 1.74353 18.4654L18.3687 1.84021C19.1381 1.07084 20.5669 1.07084 21.3363 1.84021L22.0434 1.13311L21.3363 1.84021L39.6369 20.1408C41.1873 21.6912 43.8825 21.6912 45.433 20.1408L63.7336 1.84021C64.5029 1.07084 65.9318 1.07084 66.7012 1.84021L83.3263 18.4654C84.2464 19.3855 84.19 20.6538 83.3645 21.3968Z" stroke="url(#paint0_linear_53_1207)" stroke-width="2"/>
<defs>
<linearGradient id="paint0_linear_53_1207" x1="0.166504" y1="42.6316" x2="85" y2="42.6316" gradientUnits="userSpaceOnUse">
<stop stop-color="#F7941D"/>
<stop offset="1" stop-color="#27AAE1"/>
</linearGradient>
</defs>
</svg>
