<svg width="68" height="86" viewBox="0 0 68 86" fill="none" xmlns="http://www.w3.org/2000/svg">
<path opacity="0.2" d="M15.0122 83.16L14.7445 84.1236L14.757 84.1269L15.0122 83.16ZM0.372187 76.44L-0.519345 75.987L-0.907436 76.7509L-0.212117 77.2515L0.372187 76.44ZM7.93219 61.56L8.51916 60.7504L7.57108 60.063L7.04066 61.107L7.93219 61.56ZM19.0922 67.08L18.7868 68.0322L18.7868 68.0322L19.0922 67.08ZM43.4522 66.24L44.0177 67.0647L44.0177 67.0647L43.4522 66.24ZM43.9322 50.76L44.528 49.9569L43.9322 50.76ZM23.0522 48H22.0522V49H23.0522V48ZM23.0522 35.16L22.3024 34.4984L22.0522 34.7819V35.16H23.0522ZM46.4522 8.64L47.4073 8.3436L46.8798 6.64396L45.7024 7.97838L46.4522 8.64ZM48.6122 15.6V16.6H49.9696L49.5673 15.3036L48.6122 15.6ZM4.57219 15.6H3.57219V16.6H4.57219V15.6ZM4.57219 -5.72205e-06V-1.00001H3.57219V-5.72205e-06H4.57219ZM63.3722 -5.72205e-06H64.3722V-1.00001H63.3722V-5.72205e-06ZM63.3722 12.6L64.1237 13.2597L64.3722 12.9766V12.6H63.3722ZM40.0922 39.12L39.5949 39.9876L40.3043 40.3942L40.8437 39.7797L40.0922 39.12ZM30.2522 33.48V32.48H26.4966L29.7549 34.3476L30.2522 33.48ZM59.2922 40.44L58.6321 41.1912L58.6321 41.1912L59.2922 40.44ZM63.4922 71.64L64.3467 72.1594L64.3511 72.1521L63.4922 71.64ZM52.0922 81.6L51.645 80.7056L51.645 80.7056L52.0922 81.6ZM32.4122 84.44C26.66 84.44 20.9458 83.6916 15.2673 82.1931L14.757 84.1269C20.5986 85.6684 26.4843 86.44 32.4122 86.44V84.44ZM15.2798 82.1965C9.61006 80.6215 4.84278 78.4266 0.956492 75.6285L-0.212117 77.2515C3.90159 80.2134 8.89432 82.4985 14.7445 84.1235L15.2798 82.1965ZM1.26372 76.893L8.82372 62.013L7.04066 61.107L-0.519345 75.987L1.26372 76.893ZM7.34522 62.3696C10.641 64.7591 14.4585 66.6439 18.7868 68.0322L19.3976 66.1278C15.2458 64.7961 11.6234 63.0009 8.51916 60.7504L7.34522 62.3696ZM18.7868 68.0322C23.1224 69.4229 27.5053 70.12 31.9322 70.12V68.12C27.719 68.12 23.542 67.4571 19.3976 66.1278L18.7868 68.0322ZM31.9322 70.12C36.9296 70.12 40.993 69.1388 44.0177 67.0647L42.8867 65.4153C40.3114 67.1812 36.6948 68.12 31.9322 68.12V70.12ZM44.0177 67.0647C47.0862 64.9606 48.6522 62.0138 48.6522 58.32H46.6522C46.6522 61.3462 45.4181 63.6794 42.8867 65.4153L44.0177 67.0647ZM48.6522 58.32C48.6522 54.8169 47.2729 51.9934 44.528 49.9569L43.3363 51.5631C45.5515 53.2066 46.6522 55.4231 46.6522 58.32H48.6522ZM44.528 49.9569C41.7856 47.9222 37.5179 47 31.9322 47V49C37.3865 49 41.1187 49.9178 43.3363 51.5631L44.528 49.9569ZM31.9322 47H23.0522V49H31.9322V47ZM24.0522 48V35.16H22.0522V48H24.0522ZM23.802 35.8216L47.202 9.30162L45.7024 7.97838L22.3024 34.4984L23.802 35.8216ZM45.4971 8.9364L47.6571 15.8964L49.5673 15.3036L47.4073 8.3436L45.4971 8.9364ZM48.6122 14.6H4.57219V16.6H48.6122V14.6ZM5.57219 15.6V-5.72205e-06H3.57219V15.6H5.57219ZM4.57219 0.999994H63.3722V-1.00001H4.57219V0.999994ZM62.3722 -5.72205e-06V12.6H64.3722V-5.72205e-06H62.3722ZM62.6207 11.9403L39.3407 38.4603L40.8437 39.7797L64.1237 13.2597L62.6207 11.9403ZM40.5895 38.2524L30.7495 32.6124L29.7549 34.3476L39.5949 39.9876L40.5895 38.2524ZM30.2522 34.48H35.8922V32.48H30.2522V34.48ZM35.8922 34.48C46.0805 34.48 53.6037 36.7723 58.6321 41.1912L59.9523 39.6888C54.4207 34.8277 46.3439 32.48 35.8922 32.48V34.48ZM58.6321 41.1912C63.6874 45.6337 66.2122 51.3159 66.2122 58.32H68.2122C68.2122 50.7641 65.457 44.5263 59.9523 39.6888L58.6321 41.1912ZM66.2122 58.32C66.2122 62.8548 65.0235 67.1185 62.6332 71.1279L64.3511 72.1521C66.9209 67.8415 68.2122 63.2252 68.2122 58.32H66.2122ZM62.6377 71.1206C60.2734 75.0102 56.6304 78.2129 51.645 80.7056L52.5394 82.4944C57.794 79.8671 61.751 76.4298 64.3467 72.1594L62.6377 71.1206ZM51.645 80.7056C46.7078 83.1742 40.315 84.44 32.4122 84.44V86.44C40.5094 86.44 47.2366 85.1458 52.5394 82.4944L51.645 80.7056Z" fill="#27AAE1"/>
</svg>
