<svg width="131" height="130" viewBox="0 0 131 130" fill="none" xmlns="http://www.w3.org/2000/svg">
<path d="M128.794 32.8195L128.775 32.837L128.756 32.8556L100.68 60.9317C98.5101 63.1017 98.5101 66.8983 100.68 69.0683L128.756 97.1444C130.145 98.5333 130.145 101.064 128.756 102.453L103.25 127.958C101.862 129.347 99.3312 129.347 97.9422 127.958L69.8662 99.8823C67.6962 97.7123 63.8995 97.7123 61.7295 99.8823L33.6535 127.958C32.2645 129.347 29.7342 129.347 28.3453 127.958L2.83956 102.453C1.45062 101.064 1.45062 98.5333 2.83956 97.1444L30.9156 69.0683C33.0856 66.8983 33.0856 63.1017 30.9156 60.9317L2.83956 32.8556C1.45062 31.4667 1.45062 28.9363 2.83956 27.5474L28.3453 2.04171C29.7342 0.652764 32.2645 0.652764 33.6535 2.04171L61.7295 30.1178C63.8995 32.2877 67.6962 32.2877 69.8662 30.1178L97.9422 2.04171C99.3312 0.652764 101.862 0.652764 103.25 2.04171L128.756 27.5474C130.365 29.1559 130.308 31.4569 128.794 32.8195Z" stroke="url(#paint0_linear_53_3766)" stroke-width="2"/>
<defs>
<linearGradient id="paint0_linear_53_3766" x1="0.797852" y1="65" x2="130.946" y2="65" gradientUnits="userSpaceOnUse">
<stop stop-color="#F7941D"/>
<stop offset="1" stop-color="#27AAE1"/>
</linearGradient>
</defs>
</svg>
