<svg width="316" height="64" viewBox="0 0 316 64" fill="none" xmlns="http://www.w3.org/2000/svg">
<path d="M12.642 62.1605H10.642V64.1605H12.642V62.1605ZM12.642 7.12052L14.0562 5.7063L10.642 2.29209V7.12052H12.642ZM18.662 13.1405V15.1405H23.4904L20.0762 11.7263L18.662 13.1405ZM0.602 13.1405H-1.398V15.1405H0.602V13.1405ZM0.602 1.96052V-0.0394821H-1.398V1.96052H0.602ZM26.574 1.96052H28.574V-0.0394821H26.574V1.96052ZM26.574 62.1605V64.1605H28.574V62.1605H26.574ZM14.642 62.1605V7.12052H10.642V62.1605H14.642ZM11.2278 8.53473L17.2478 14.5547L20.0762 11.7263L14.0562 5.7063L11.2278 8.53473ZM18.662 11.1405H0.602V15.1405H18.662V11.1405ZM2.602 13.1405V1.96052H-1.398V13.1405H2.602ZM0.602 3.96052H26.574V-0.0394821H0.602V3.96052ZM24.574 1.96052V62.1605H28.574V1.96052H24.574ZM26.574 60.1605H12.642V64.1605H26.574V60.1605ZM44.5137 49.5185H42.5137V51.5185H44.5137V49.5185ZM44.5137 40.1445L42.9085 38.9515L42.5137 39.4827V40.1445H44.5137ZM72.8937 1.96052V-0.0394821H71.8883L71.2885 0.767471L72.8937 1.96052ZM87.5137 1.96052L89.1311 3.13708L91.4419 -0.0394821H87.5137V1.96052ZM59.7357 40.1445L59.1767 42.0648L60.5262 42.4577L61.353 41.3211L59.7357 40.1445ZM52.9417 38.1665V36.1665L52.3827 40.0868L52.9417 38.1665ZM100.328 38.1665H102.328V36.1665H100.328V38.1665ZM100.328 49.5185V51.5185H102.328V49.5185H100.328ZM76.9357 62.1605H74.9357V64.1605H76.9357V62.1605ZM76.9357 49.5185L74.9372 49.4428L74.9357 49.4807V49.5185H76.9357ZM77.3657 38.1665L79.3643 38.2422L79.3657 38.2044V38.1665H77.3657ZM77.3657 26.9005V24.9005H75.3657V26.9005H77.3657ZM90.5237 26.9005H92.5237V24.9005H90.5237V26.9005ZM90.5237 62.1605V64.1605H92.5237V62.1605H90.5237ZM46.5137 49.5185V40.1445H42.5137V49.5185H46.5137ZM46.1189 41.3376L74.4989 3.15357L71.2885 0.767471L42.9085 38.9515L46.1189 41.3376ZM72.8937 3.96052H87.5137V-0.0394821H72.8937V3.96052ZM85.8964 0.783958L58.1184 38.968L61.353 41.3211L89.1311 3.13708L85.8964 0.783958ZM60.2948 38.2243L53.5008 36.2463L52.3827 40.0868L59.1767 42.0648L60.2948 38.2243ZM52.9417 40.1665H100.328V36.1665H52.9417V40.1665ZM98.3277 38.1665V49.5185H102.328V38.1665H98.3277ZM100.328 47.5185H44.5137V51.5185H100.328V47.5185ZM78.9357 62.1605V49.5185H74.9357V62.1605H78.9357ZM78.9343 49.5942L79.3643 38.2422L75.3672 38.0908L74.9372 49.4428L78.9343 49.5942ZM79.3657 38.1665V26.9005H75.3657V38.1665H79.3657ZM77.3657 28.9005H90.5237V24.9005H77.3657V28.9005ZM88.5237 26.9005V62.1605H92.5237V26.9005H88.5237ZM90.5237 60.1605H76.9357V64.1605H90.5237V60.1605ZM154.822 62.1605L152.993 61.352L151.751 64.1605H154.822V62.1605ZM179.074 7.29252L180.789 6.26353L178.804 2.95566L177.245 6.48397L179.074 7.29252ZM182.686 13.3125V15.3125H186.219L184.401 12.2835L182.686 13.3125ZM150.264 13.3125L148.812 11.937L145.614 15.3125H150.264V13.3125ZM156.456 6.77652H158.456V1.75735L155.004 5.40103L156.456 6.77652ZM156.456 23.1165V25.1165H158.456V23.1165H156.456ZM144.072 23.1165H142.072V25.1165H144.072V23.1165ZM144.072 1.96052V-0.0394821H142.072V1.96052H144.072ZM192.318 1.96052H194.318V-0.0394821H192.318V1.96052ZM192.318 10.9905L194.151 11.7914L194.318 11.4084V10.9905H192.318ZM169.958 62.1605V64.1605H171.267L171.791 62.9613L169.958 62.1605ZM156.651 62.9691L180.903 8.10107L177.245 6.48397L152.993 61.352L156.651 62.9691ZM177.359 8.32151L180.971 14.3415L184.401 12.2835L180.789 6.26353L177.359 8.32151ZM182.686 11.3125H150.264V15.3125H182.686V11.3125ZM151.716 14.688L157.908 8.15201L155.004 5.40103L148.812 11.937L151.716 14.688ZM154.456 6.77652V23.1165H158.456V6.77652H154.456ZM156.456 21.1165H144.072V25.1165H156.456V21.1165ZM146.072 23.1165V1.96052H142.072V23.1165H146.072ZM144.072 3.96052H192.318V-0.0394821H144.072V3.96052ZM190.318 1.96052V10.9905H194.318V1.96052H190.318ZM190.486 10.1897L168.126 61.3597L171.791 62.9613L194.151 11.7914L190.486 10.1897ZM169.958 60.1605H154.822V64.1605H169.958V60.1605ZM242.208 4.36852L243.201 2.63203L242.208 4.36852ZM251.496 14.4305L249.703 15.3156L249.707 15.325L251.496 14.4305ZM250.808 48.4005L249.054 47.4399L249.05 47.448L249.045 47.4561L250.808 48.4005ZM240.058 59.4085L241.022 61.161L240.058 59.4085ZM207.378 59.0645L205.592 58.1641L204.785 59.7661L206.29 60.7424L207.378 59.0645ZM212.538 48.8305L213.674 47.1841L211.785 45.8817L210.752 47.9301L212.538 48.8305ZM217.87 51.2385L217.399 53.1822L217.427 53.189L217.455 53.195L217.87 51.2385ZM236.102 47.1105L234.675 45.7093L234.669 45.716L234.662 45.7227L236.102 47.1105ZM240.66 29.6525L238.662 29.7433L240.66 29.6525ZM240.23 25.8685L241.611 24.4218L237.162 20.1751L238.263 26.2263L240.23 25.8685ZM244.014 29.4805L245.848 30.2797L246.406 28.9987L245.395 28.0338L244.014 29.4805ZM239.886 35.1565L241.171 36.6889L241.186 36.6769L241.2 36.6647L239.886 35.1565ZM233.694 38.5965L234.299 40.503L234.32 40.4963L234.341 40.4892L233.694 38.5965ZM215.29 37.3925L214.396 39.1814L214.402 39.1846L214.409 39.1879L215.29 37.3925ZM207.808 30.8565L206.134 31.9501L206.141 31.962L206.149 31.9737L207.808 30.8565ZM208.066 10.3025L206.422 9.1641L206.414 9.17488L206.407 9.18577L208.066 10.3025ZM216.322 3.42252L217.168 5.23489L217.174 5.23186L217.181 5.22879L216.322 3.42252ZM223.46 12.4525L224.298 14.2684L224.327 14.2553L224.355 14.2414L223.46 12.4525ZM219.934 15.5485L221.609 16.6411L221.62 16.6249L221.63 16.6085L219.934 15.5485ZM221.396 26.9005L220.053 28.3825L220.077 28.4044L220.102 28.4255L221.396 26.9005ZM234.21 28.1905L235.078 29.9925L235.091 29.986L235.105 29.9794L234.21 28.1905ZM237.908 24.9225L236.212 23.8625L237.908 24.9225ZM237.908 15.7205L236.181 16.7283L236.206 16.7713L236.233 16.8131L237.908 15.7205ZM234.382 12.5385L233.462 14.314L233.488 14.3277L233.515 14.3405L234.382 12.5385ZM227.846 2.92852C233.13 2.92852 237.561 4.01632 241.216 6.10501L243.201 2.63203C238.829 0.134054 233.685 -1.07148 227.846 -1.07148V2.92852ZM241.216 6.105C244.86 8.18757 247.688 11.2338 249.703 15.3156L253.29 13.5454C250.947 8.79794 247.583 5.13614 243.201 2.63203L241.216 6.105ZM249.707 15.325C251.708 19.3264 252.764 24.4438 252.764 30.7705H256.764C256.764 24.0252 255.642 18.2493 253.285 13.5361L249.707 15.325ZM252.764 30.7705C252.764 37.4588 251.493 42.9861 249.054 47.4399L252.562 49.3612C255.398 44.183 256.764 37.9569 256.764 30.7705H252.764ZM249.045 47.4561C246.64 51.9469 243.327 55.3282 239.094 57.6561L241.022 61.161C245.963 58.4435 249.817 54.4862 252.571 49.345L249.045 47.4561ZM239.094 57.6561C234.847 59.9919 229.857 61.1925 224.062 61.1925V65.1925C230.422 65.1925 236.096 63.8705 241.022 61.161L239.094 57.6561ZM224.062 61.1925C221.055 61.1925 218.171 60.8647 215.404 60.2137L214.488 64.1074C217.57 64.8324 220.762 65.1925 224.062 65.1925V61.1925ZM215.404 60.2137C212.663 59.5687 210.362 58.6163 208.467 57.3866L206.29 60.7424C208.637 62.2647 211.381 63.3763 214.488 64.1074L215.404 60.2137ZM209.164 59.965L214.324 49.7309L210.752 47.9301L205.592 58.1641L209.164 59.965ZM211.403 50.477C213.259 51.7572 215.26 52.6638 217.399 53.1822L218.341 49.2948C216.696 48.8959 215.143 48.1972 213.674 47.1841L211.403 50.477ZM217.455 53.195C219.492 53.6271 221.61 53.8405 223.804 53.8405V49.8405C221.87 49.8405 220.032 49.6526 218.285 49.2821L217.455 53.195ZM223.804 53.8405C229.403 53.8405 234.06 52.1124 237.542 48.4983L234.662 45.7227C232.067 48.4153 228.526 49.8405 223.804 49.8405V53.8405ZM237.529 48.5117C241.119 44.856 242.746 39.5959 242.746 33.0925H238.746C238.746 38.9732 237.278 43.0584 234.675 45.7093L237.529 48.5117ZM242.746 33.0925C242.746 32.0245 242.717 30.8469 242.658 29.5617L238.662 29.7433C238.719 30.9808 238.746 32.0966 238.746 33.0925H242.746ZM242.658 29.5617C242.597 28.2094 242.443 26.8589 242.198 25.5107L238.263 26.2263C238.476 27.4008 238.609 28.5729 238.662 29.7433L242.658 29.5617ZM238.849 27.3152L242.633 30.9272L245.395 28.0338L241.611 24.4218L238.849 27.3152ZM242.181 28.6814C241.32 30.6552 240.118 32.3021 238.573 33.6484L241.2 36.6647C243.209 34.915 244.759 32.7779 245.848 30.2797L242.181 28.6814ZM238.601 33.6241C237.026 34.9454 235.182 35.9752 233.048 36.7038L234.341 40.4892C236.908 39.6126 239.192 38.349 241.171 36.6889L238.601 33.6241ZM233.09 36.6901C230.967 37.3631 228.538 37.7145 225.782 37.7145V41.7145C228.874 41.7145 231.72 41.3206 234.299 40.503L233.09 36.6901ZM225.782 37.7145C222.217 37.7145 219.026 36.9983 216.172 35.5972L214.409 39.1879C217.861 40.8827 221.664 41.7145 225.782 41.7145V37.7145ZM216.185 35.6037C213.39 34.2064 211.162 32.2561 209.467 29.7393L206.149 31.9737C208.238 35.0756 210.998 37.4827 214.396 39.1814L216.185 35.6037ZM209.483 29.7629C207.887 27.3192 207.056 24.4133 207.056 20.9665H203.056C203.056 25.0877 204.06 28.7752 206.134 31.9501L209.483 29.7629ZM207.056 20.9665C207.056 17.1755 207.973 14.0234 209.725 11.4193L206.407 9.18577C204.147 12.5443 203.056 16.5016 203.056 20.9665H207.056ZM209.711 11.4409C211.563 8.76498 214.034 6.69764 217.168 5.23489L215.476 1.61015C211.731 3.35806 208.697 5.87739 206.422 9.1641L209.711 11.4409ZM217.181 5.22879C220.389 3.70376 223.934 2.92852 227.846 2.92852V-1.07148C223.388 -1.07148 219.25 -0.184048 215.464 1.61625L217.181 5.22879ZM228.706 9.33452C226.452 9.33452 224.385 9.75394 222.566 10.6637L224.355 14.2414C225.517 13.6604 226.947 13.3345 228.706 13.3345V9.33452ZM222.622 10.6366C220.782 11.4857 219.307 12.7783 218.238 14.4885L221.63 16.6085C222.281 15.5667 223.157 14.7954 224.298 14.2684L222.622 10.6366ZM218.259 14.456C217.154 16.1505 216.644 18.1214 216.644 20.2785H220.644C220.644 18.7663 220.995 17.5839 221.609 16.6411L218.259 14.456ZM216.644 20.2785C216.644 23.525 217.751 26.2961 220.053 28.3825L222.739 25.4185C221.372 24.1796 220.644 22.536 220.644 20.2785H216.644ZM220.102 28.4255C222.438 30.4077 225.429 31.3085 228.878 31.3085V27.3085C226.135 27.3085 224.138 26.604 222.69 25.3755L220.102 28.4255ZM228.878 31.3085C231.135 31.3085 233.217 30.8883 235.078 29.9925L233.343 26.3885C232.107 26.9834 230.635 27.3085 228.878 27.3085V31.3085ZM235.105 29.9794C237.003 29.0301 238.529 27.703 239.604 25.9825L236.212 23.8625C235.568 24.894 234.628 25.7456 233.316 26.4017L235.105 29.9794ZM239.604 25.9825C240.675 24.2693 241.198 22.3498 241.198 20.2785H237.198C237.198 21.6472 236.861 22.8237 236.212 23.8625L239.604 25.9825ZM241.198 20.2785C241.198 18.2079 240.675 16.3016 239.583 14.628L236.233 16.8131C236.862 17.7768 237.198 18.9091 237.198 20.2785H241.198ZM239.636 14.7128C238.616 12.9649 237.128 11.6407 235.25 10.7365L233.515 14.3405C234.733 14.927 235.595 15.7242 236.181 16.7283L239.636 14.7128ZM235.303 10.763C233.401 9.77711 231.175 9.33452 228.706 9.33452V13.3345C230.71 13.3345 232.267 13.6946 233.462 14.314L235.303 10.763ZM277.616 61.5585L277.074 63.4836L277.09 63.4881L277.106 63.4923L277.616 61.5585ZM267.124 56.7425L265.347 55.8252L264.548 57.3724L265.971 58.3765L267.124 56.7425ZM272.628 46.0785L273.802 44.4593L271.918 43.0934L270.851 45.1612L272.628 46.0785ZM280.54 50.0345L279.919 51.9355L279.929 51.9389L280.54 50.0345ZM297.998 49.4325L299.129 51.082L297.998 49.4325ZM295.504 36.7905L294.904 38.6985L294.912 38.7009L294.92 38.7032L295.504 36.7905ZM271.596 35.8445L269.604 35.6625L269.405 37.8445H271.596V35.8445ZM274.692 1.96052V-0.0394821H272.866L272.7 1.77854L274.692 1.96052ZM311.414 1.96052H313.414V-0.0394821H311.414V1.96052ZM311.414 13.1405V15.1405H313.414V13.1405H311.414ZM279.68 13.1405L278.358 11.6398L274.384 15.1405H279.68V13.1405ZM286.904 6.77652L288.896 6.95375L289.34 1.96517L285.582 5.2758L286.904 6.77652ZM284.754 30.9425L283.432 32.4432L286.396 35.0545L286.746 31.1198L284.754 30.9425ZM277.53 24.5785V22.5785H272.234L276.208 26.0792L277.53 24.5785ZM304.62 27.0725L303.784 28.8893L303.801 28.8972L303.818 28.9048L304.62 27.0725ZM312.618 33.6945L314.339 32.6759V32.6759L312.618 33.6945ZM312.446 53.1305L314.164 54.1546L314.168 54.1475L314.172 54.1403L312.446 53.1305ZM304.19 60.4405L305.085 62.2294L305.095 62.2239L304.19 60.4405ZM290.086 61.1925C286.076 61.1925 282.091 60.671 278.126 59.6247L277.106 63.4923C281.397 64.6247 285.725 65.1925 290.086 65.1925V61.1925ZM278.158 59.6334C274.268 58.5375 270.985 57.0201 268.277 55.1086L265.971 58.3765C269.111 60.5929 272.823 62.2862 277.074 63.4836L278.158 59.6334ZM268.901 57.6598L274.405 46.9958L270.851 45.1612L265.347 55.8252L268.901 57.6598ZM271.454 47.6977C273.933 49.4948 276.761 50.9031 279.919 51.9355L281.162 48.1335C278.357 47.2166 275.91 45.9875 273.802 44.4593L271.454 47.6977ZM279.929 51.9389C283.159 52.975 286.432 53.4965 289.742 53.4965V49.4965C286.86 49.4965 283.998 49.0434 281.151 48.1301L279.929 51.9389ZM289.742 53.4965C293.474 53.4965 296.673 52.7661 299.129 51.082L296.867 47.7831C295.31 48.8509 293.005 49.4965 289.742 49.4965V53.4965ZM299.129 51.082C301.688 49.3272 303.008 46.7848 303.008 43.6705H299.008C299.008 45.4869 298.321 46.7859 296.867 47.7831L299.129 51.082ZM303.008 43.6705C303.008 41.7566 302.505 39.9889 301.468 38.4331L298.14 40.6519C298.708 41.5041 299.008 42.4885 299.008 43.6705H303.008ZM301.468 38.4331C300.31 36.6954 298.385 35.5796 296.089 34.8778L294.92 38.7032C296.751 39.2628 297.693 39.9817 298.14 40.6519L301.468 38.4331ZM296.104 34.8825C293.81 34.1618 290.735 33.8445 286.99 33.8445V37.8445C290.583 37.8445 293.184 38.1579 294.904 38.6985L296.104 34.8825ZM286.99 33.8445H271.596V37.8445H286.99V33.8445ZM273.588 36.0265L276.684 2.1425L272.7 1.77854L269.604 35.6625L273.588 36.0265ZM274.692 3.96052H311.414V-0.0394821H274.692V3.96052ZM309.414 1.96052V13.1405H313.414V1.96052H309.414ZM311.414 11.1405H279.68V15.1405H311.414V11.1405ZM281.002 14.6412L288.226 8.27724L285.582 5.2758L278.358 11.6398L281.002 14.6412ZM284.912 6.59928L282.762 30.7653L286.746 31.1198L288.896 6.95375L284.912 6.59928ZM286.076 29.4418L278.852 23.0778L276.208 26.0792L283.432 32.4432L286.076 29.4418ZM277.53 26.5785H290.258V22.5785H277.53V26.5785ZM290.258 26.5785C296.063 26.5785 300.532 27.3923 303.784 28.8893L305.456 25.2558C301.484 23.4274 296.378 22.5785 290.258 22.5785V26.5785ZM303.818 28.9048C307.192 30.3808 309.492 32.3399 310.897 34.7132L314.339 32.6759C312.418 29.4305 309.387 26.9749 305.422 25.2402L303.818 28.9048ZM310.897 34.7132C312.361 37.1869 313.112 40.0114 313.112 43.2405H317.112C317.112 39.3603 316.2 35.8208 314.339 32.6759L310.897 34.7132ZM313.112 43.2405C313.112 46.4439 312.316 49.3916 310.72 52.1208L314.172 54.1403C316.131 50.7921 317.112 47.1464 317.112 43.2405H313.112ZM310.728 52.1064C309.181 54.702 306.744 56.9011 303.285 58.6572L305.095 62.2239C309.09 60.1959 312.157 57.5217 314.164 54.1546L310.728 52.1064ZM303.296 58.6517C299.992 60.3035 295.625 61.1925 290.086 61.1925V65.1925C296.014 65.1925 301.05 64.2469 305.085 62.2294L303.296 58.6517Z" fill="url(#paint0_linear_64_4122)"/>
<defs>
<linearGradient id="paint0_linear_64_4122" x1="0" y1="31.6605" x2="318" y2="31.6605" gradientUnits="userSpaceOnUse">
<stop stop-color="#F7941D"/>
<stop offset="1" stop-color="#27AAE1"/>
</linearGradient>
</defs>
</svg>
