<svg width="182" height="64" viewBox="0 0 182 64" fill="none" xmlns="http://www.w3.org/2000/svg">
<path d="M12.91 59.7525L11.9177 61.489L11.9283 61.495L12.91 59.7525ZM3.622 49.6905L5.41549 48.8054L3.622 49.6905ZM4.224 15.7205L2.46981 14.7599L2.46539 14.768L2.46104 14.7761L4.224 15.7205ZM15.06 4.71252L14.1053 2.95505L14.0962 2.96009L15.06 4.71252ZM40.258 1.96052L40.7161 0.0136833L40.258 1.96052ZM47.826 5.05652L49.6118 5.95694L50.4196 4.35494L48.9144 3.3786L47.826 5.05652ZM42.666 15.2905L41.5305 16.9369L43.419 18.2394L44.4518 16.1909L42.666 15.2905ZM37.334 12.9685L36.8628 14.9122L36.8908 14.919L36.919 14.925L37.334 12.9685ZM19.016 17.0105L17.5758 15.6227L19.016 17.0105ZM14.458 34.4685H12.458V34.514L12.4601 34.5593L14.458 34.4685ZM14.974 38.2525L13.6094 39.7146L18.3664 44.1545L16.9243 37.8093L14.974 38.2525ZM11.104 34.6405L9.30602 33.7646L8.65846 35.0938L9.73936 36.1026L11.104 34.6405ZM15.318 29.0505L16.6279 30.5619L16.642 30.5496L16.6559 30.5371L15.318 29.0505ZM21.424 25.6105L22.0285 27.517L22.0425 27.5125L22.0565 27.5079L21.424 25.6105ZM39.828 26.7285L40.7224 24.9397H40.7224L39.828 26.7285ZM47.224 33.2645L45.5495 34.3581L45.5572 34.37L45.5651 34.3817L47.224 33.2645ZM46.966 53.8185L45.3116 52.6947L45.3068 52.7018L46.966 53.8185ZM38.796 60.7845L39.6535 62.5914L39.6599 62.5883L39.6663 62.5852L38.796 60.7845ZM31.658 51.7545L32.4961 53.5704L32.5109 53.5636L32.5256 53.5565L31.658 51.7545ZM35.27 48.5725L36.966 49.6325L35.27 48.5725ZM33.722 37.3065L32.379 38.7885L32.4032 38.8104L32.428 38.8315L33.722 37.3065ZM20.908 36.0165L21.7756 37.8185L21.8023 37.8057L21.8286 37.792L20.908 36.0165ZM17.21 39.1985L15.5459 38.0891L15.5403 38.0975L15.5348 38.106L17.21 39.1985ZM17.21 48.4865L15.514 49.5465L15.5242 49.5629L15.5348 49.5791L17.21 48.4865ZM20.822 51.6685L19.9014 53.444L19.9277 53.4577L19.9544 53.4705L20.822 51.6685ZM27.272 61.1925C22.0504 61.1925 17.6133 60.1067 13.8917 58.01L11.9283 61.495C16.348 63.985 21.4856 65.1925 27.272 65.1925V61.1925ZM13.9023 58.016C10.2578 55.9335 7.42991 52.8873 5.41549 48.8054L1.82851 50.5756C4.17142 55.3231 7.53555 58.9849 11.9177 61.489L13.9023 58.016ZM5.41549 48.8054C3.4086 44.7388 2.354 39.6153 2.354 33.3505H-1.646C-1.646 40.0431 -0.521934 45.8129 1.82851 50.5756L5.41549 48.8054ZM2.354 33.3505C2.354 26.6559 3.59898 21.1225 5.98696 16.665L2.46104 14.7761C-0.310983 19.9505 -1.646 26.1705 -1.646 33.3505H2.354ZM5.97819 16.6811C8.44216 12.1817 11.7873 8.79504 16.0238 6.46495L14.0962 2.96009C9.15935 5.67533 5.28051 9.6273 2.46981 14.7599L5.97819 16.6811ZM16.0147 6.46997C20.327 4.12746 25.3225 2.92852 31.056 2.92852V-1.07148C24.7495 -1.07148 19.081 0.252245 14.1053 2.95507L16.0147 6.46997ZM31.056 2.92852C34.123 2.92852 37.036 3.25702 39.7999 3.90735L40.7161 0.0136833C37.632 -0.711975 34.4104 -1.07148 31.056 -1.07148V2.92852ZM39.7999 3.90735C42.541 4.55231 44.8418 5.50473 46.7376 6.73444L48.9144 3.3786C46.5675 1.85631 43.823 0.744734 40.7161 0.0136833L39.7999 3.90735ZM46.0402 4.1561L40.8802 14.3901L44.4518 16.1909L49.6118 5.95694L46.0402 4.1561ZM43.8015 13.6441C41.9313 12.3543 39.9107 11.4706 37.749 11.0121L36.919 14.925C38.5413 15.2691 40.0754 15.9334 41.5305 16.9369L43.8015 13.6441ZM37.8052 11.0248C35.7499 10.5266 33.6132 10.2805 31.4 10.2805V14.2805C33.3148 14.2805 35.1341 14.4931 36.8628 14.9122L37.8052 11.0248ZM31.4 10.2805C25.7516 10.2805 21.0628 12.0042 17.5758 15.6227L20.4562 18.3983C23.0465 15.7102 26.6137 14.2805 31.4 14.2805V10.2805ZM17.5758 15.6227C14.0521 19.2794 12.458 24.5344 12.458 31.0285H16.458C16.458 25.1387 17.9026 21.0483 20.4562 18.3983L17.5758 15.6227ZM12.458 31.0285C12.458 31.0305 12.458 31.0326 12.458 31.0346C12.458 31.0366 12.458 31.0386 12.458 31.0406C12.458 31.0426 12.458 31.0447 12.458 31.0467C12.458 31.0487 12.458 31.0507 12.458 31.0527C12.458 31.0547 12.458 31.0568 12.458 31.0588C12.458 31.0608 12.458 31.0628 12.458 31.0648C12.458 31.0669 12.458 31.0689 12.458 31.0709C12.458 31.0729 12.458 31.075 12.458 31.077C12.458 31.079 12.458 31.081 12.458 31.083C12.458 31.0851 12.458 31.0871 12.458 31.0891C12.458 31.0911 12.458 31.0932 12.458 31.0952C12.458 31.0972 12.458 31.0992 12.458 31.1013C12.458 31.1033 12.458 31.1053 12.458 31.1074C12.458 31.1094 12.458 31.1114 12.458 31.1134C12.458 31.1155 12.458 31.1175 12.458 31.1195C12.458 31.1215 12.458 31.1236 12.458 31.1256C12.458 31.1276 12.458 31.1297 12.458 31.1317C12.458 31.1337 12.458 31.1358 12.458 31.1378C12.458 31.1398 12.458 31.1419 12.458 31.1439C12.458 31.1459 12.458 31.1479 12.458 31.15C12.458 31.152 12.458 31.154 12.458 31.1561C12.458 31.1581 12.458 31.1602 12.458 31.1622C12.458 31.1642 12.458 31.1663 12.458 31.1683C12.458 31.1703 12.458 31.1724 12.458 31.1744C12.458 31.1764 12.458 31.1785 12.458 31.1805C12.458 31.1826 12.458 31.1846 12.458 31.1866C12.458 31.1887 12.458 31.1907 12.458 31.1927C12.458 31.1948 12.458 31.1968 12.458 31.1989C12.458 31.2009 12.458 31.2029 12.458 31.205C12.458 31.207 12.458 31.2091 12.458 31.2111C12.458 31.2132 12.458 31.2152 12.458 31.2172C12.458 31.2193 12.458 31.2213 12.458 31.2234C12.458 31.2254 12.458 31.2275 12.458 31.2295C12.458 31.2315 12.458 31.2336 12.458 31.2356C12.458 31.2377 12.458 31.2397 12.458 31.2418C12.458 31.2438 12.458 31.2459 12.458 31.2479C12.458 31.25 12.458 31.252 12.458 31.2541C12.458 31.2561 12.458 31.2581 12.458 31.2602C12.458 31.2622 12.458 31.2643 12.458 31.2663C12.458 31.2684 12.458 31.2704 12.458 31.2725C12.458 31.2745 12.458 31.2766 12.458 31.2786C12.458 31.2807 12.458 31.2828 12.458 31.2848C12.458 31.2869 12.458 31.2889 12.458 31.291C12.458 31.293 12.458 31.2951 12.458 31.2971C12.458 31.2992 12.458 31.3012 12.458 31.3033C12.458 31.3053 12.458 31.3074 12.458 31.3095C12.458 31.3115 12.458 31.3136 12.458 31.3156C12.458 31.3177 12.458 31.3197 12.458 31.3218C12.458 31.3239 12.458 31.3259 12.458 31.328C12.458 31.33 12.458 31.3321 12.458 31.3341C12.458 31.3362 12.458 31.3383 12.458 31.3403C12.458 31.3424 12.458 31.3444 12.458 31.3465C12.458 31.3486 12.458 31.3506 12.458 31.3527C12.458 31.3548 12.458 31.3568 12.458 31.3589C12.458 31.3609 12.458 31.363 12.458 31.3651C12.458 31.3671 12.458 31.3692 12.458 31.3713C12.458 31.3733 12.458 31.3754 12.458 31.3775C12.458 31.3795 12.458 31.3816 12.458 31.3837C12.458 31.3857 12.458 31.3878 12.458 31.3899C12.458 31.3919 12.458 31.394 12.458 31.3961C12.458 31.3981 12.458 31.4002 12.458 31.4023C12.458 31.4043 12.458 31.4064 12.458 31.4085C12.458 31.4105 12.458 31.4126 12.458 31.4147C12.458 31.4168 12.458 31.4188 12.458 31.4209C12.458 31.423 12.458 31.425 12.458 31.4271C12.458 31.4292 12.458 31.4313 12.458 31.4333C12.458 31.4354 12.458 31.4375 12.458 31.4396C12.458 31.4416 12.458 31.4437 12.458 31.4458C12.458 31.4479 12.458 31.4499 12.458 31.452C12.458 31.4541 12.458 31.4562 12.458 31.4582C12.458 31.4603 12.458 31.4624 12.458 31.4645C12.458 31.4665 12.458 31.4686 12.458 31.4707C12.458 31.4728 12.458 31.4749 12.458 31.4769C12.458 31.479 12.458 31.4811 12.458 31.4832C12.458 31.4853 12.458 31.4873 12.458 31.4894C12.458 31.4915 12.458 31.4936 12.458 31.4957C12.458 31.4977 12.458 31.4998 12.458 31.5019C12.458 31.504 12.458 31.5061 12.458 31.5082C12.458 31.5102 12.458 31.5123 12.458 31.5144C12.458 31.5165 12.458 31.5186 12.458 31.5207C12.458 31.5228 12.458 31.5248 12.458 31.5269C12.458 31.529 12.458 31.5311 12.458 31.5332C12.458 31.5353 12.458 31.5374 12.458 31.5395C12.458 31.5415 12.458 31.5436 12.458 31.5457C12.458 31.5478 12.458 31.5499 12.458 31.552C12.458 31.5541 12.458 31.5562 12.458 31.5583C12.458 31.5603 12.458 31.5624 12.458 31.5645C12.458 31.5666 12.458 31.5687 12.458 31.5708C12.458 31.5729 12.458 31.575 12.458 31.5771C12.458 31.5792 12.458 31.5813 12.458 31.5834C12.458 31.5855 12.458 31.5876 12.458 31.5897C12.458 31.5917 12.458 31.5938 12.458 31.5959C12.458 31.598 12.458 31.6001 12.458 31.6022C12.458 31.6043 12.458 31.6064 12.458 31.6085C12.458 31.6106 12.458 31.6127 12.458 31.6148C12.458 31.6169 12.458 31.619 12.458 31.6211C12.458 31.6232 12.458 31.6253 12.458 31.6274C12.458 31.6295 12.458 31.6316 12.458 31.6337C12.458 31.6358 12.458 31.6379 12.458 31.64C12.458 31.6421 12.458 31.6442 12.458 31.6463C12.458 31.6484 12.458 31.6505 12.458 31.6526C12.458 31.6547 12.458 31.6568 12.458 31.659C12.458 31.6611 12.458 31.6632 12.458 31.6653C12.458 31.6674 12.458 31.6695 12.458 31.6716C12.458 31.6737 12.458 31.6758 12.458 31.6779C12.458 31.68 12.458 31.6821 12.458 31.6842C12.458 31.6863 12.458 31.6884 12.458 31.6906C12.458 31.6927 12.458 31.6948 12.458 31.6969C12.458 31.699 12.458 31.7011 12.458 31.7032C12.458 31.7053 12.458 31.7074 12.458 31.7096C12.458 31.7117 12.458 31.7138 12.458 31.7159C12.458 31.718 12.458 31.7201 12.458 31.7222C12.458 31.7243 12.458 31.7265 12.458 31.7286C12.458 31.7307 12.458 31.7328 12.458 31.7349C12.458 31.737 12.458 31.7392 12.458 31.7413C12.458 31.7434 12.458 31.7455 12.458 31.7476C12.458 31.7497 12.458 31.7519 12.458 31.754C12.458 31.7561 12.458 31.7582 12.458 31.7603C12.458 31.7624 12.458 31.7646 12.458 31.7667C12.458 31.7688 12.458 31.7709 12.458 31.773C12.458 31.7752 12.458 31.7773 12.458 31.7794C12.458 31.7815 12.458 31.7836 12.458 31.7858C12.458 31.7879 12.458 31.79 12.458 31.7921C12.458 31.7943 12.458 31.7964 12.458 31.7985C12.458 31.8006 12.458 31.8028 12.458 31.8049C12.458 31.807 12.458 31.8091 12.458 31.8113C12.458 31.8134 12.458 31.8155 12.458 31.8176C12.458 31.8198 12.458 31.8219 12.458 31.824C12.458 31.8261 12.458 31.8283 12.458 31.8304C12.458 31.8325 12.458 31.8347 12.458 31.8368C12.458 31.8389 12.458 31.841 12.458 31.8432C12.458 31.8453 12.458 31.8474 12.458 31.8496C12.458 31.8517 12.458 31.8538 12.458 31.856C12.458 31.8581 12.458 31.8602 12.458 31.8624C12.458 31.8645 12.458 31.8666 12.458 31.8688C12.458 31.8709 12.458 31.873 12.458 31.8752C12.458 31.8773 12.458 31.8794 12.458 31.8816C12.458 31.8837 12.458 31.8858 12.458 31.888C12.458 31.8901 12.458 31.8923 12.458 31.8944C12.458 31.8965 12.458 31.8987 12.458 31.9008C12.458 31.9029 12.458 31.9051 12.458 31.9072C12.458 31.9094 12.458 31.9115 12.458 31.9136C12.458 31.9158 12.458 31.9179 12.458 31.9201C12.458 31.9222 12.458 31.9243 12.458 31.9265C12.458 31.9286 12.458 31.9308 12.458 31.9329C12.458 31.9351 12.458 31.9372 12.458 31.9393C12.458 31.9415 12.458 31.9436 12.458 31.9458C12.458 31.9479 12.458 31.9501 12.458 31.9522C12.458 31.9543 12.458 31.9565 12.458 31.9586C12.458 31.9608 12.458 31.9629 12.458 31.9651C12.458 31.9672 12.458 31.9694 12.458 31.9715C12.458 31.9737 12.458 31.9758 12.458 31.978C12.458 31.9801 12.458 31.9823 12.458 31.9844C12.458 31.9866 12.458 31.9887 12.458 31.9909C12.458 31.993 12.458 31.9952 12.458 31.9973C12.458 31.9995 12.458 32.0016 12.458 32.0038C12.458 32.0059 12.458 32.0081 12.458 32.0102C12.458 32.0124 12.458 32.0145 12.458 32.0167C12.458 32.0188 12.458 32.021 12.458 32.0231C12.458 32.0253 12.458 32.0275 12.458 32.0296C12.458 32.0318 12.458 32.0339 12.458 32.0361C12.458 32.0382 12.458 32.0404 12.458 32.0426C12.458 32.0447 12.458 32.0469 12.458 32.049C12.458 32.0512 12.458 32.0533 12.458 32.0555C12.458 32.0577 12.458 32.0598 12.458 32.062C12.458 32.0641 12.458 32.0663 12.458 32.0685C12.458 32.0706 12.458 32.0728 12.458 32.0749C12.458 32.0771 12.458 32.0793 12.458 32.0814C12.458 32.0836 12.458 32.0858 12.458 32.0879C12.458 32.0901 12.458 32.0923 12.458 32.0944C12.458 32.0966 12.458 32.0987 12.458 32.1009C12.458 32.1031 12.458 32.1052 12.458 32.1074C12.458 32.1096 12.458 32.1117 12.458 32.1139C12.458 32.1161 12.458 32.1182 12.458 32.1204C12.458 32.1226 12.458 32.1247 12.458 32.1269C12.458 32.1291 12.458 32.1312 12.458 32.1334C12.458 32.1356 12.458 32.1378 12.458 32.1399C12.458 32.1421 12.458 32.1443 12.458 32.1464C12.458 32.1486 12.458 32.1508 12.458 32.153C12.458 32.1551 12.458 32.1573 12.458 32.1595C12.458 32.1616 12.458 32.1638 12.458 32.166C12.458 32.1682 12.458 32.1703 12.458 32.1725C12.458 32.1747 12.458 32.1769 12.458 32.179C12.458 32.1812 12.458 32.1834 12.458 32.1856C12.458 32.1878 12.458 32.1899 12.458 32.1921C12.458 32.1943 12.458 32.1965 12.458 32.1986C12.458 32.2008 12.458 32.203 12.458 32.2052C12.458 32.2074 12.458 32.2095 12.458 32.2117C12.458 32.2139 12.458 32.2161 12.458 32.2183C12.458 32.2204 12.458 32.2226 12.458 32.2248C12.458 32.227 12.458 32.2292 12.458 32.2313C12.458 32.2335 12.458 32.2357 12.458 32.2379C12.458 32.2401 12.458 32.2423 12.458 32.2444C12.458 32.2466 12.458 32.2488 12.458 32.251C12.458 32.2532 12.458 32.2554 12.458 32.2576C12.458 32.2597 12.458 32.2619 12.458 32.2641C12.458 32.2663 12.458 32.2685 12.458 32.2707C12.458 32.2729 12.458 32.2751 12.458 32.2772C12.458 32.2794 12.458 32.2816 12.458 32.2838C12.458 32.286 12.458 32.2882 12.458 32.2904C12.458 32.2926 12.458 32.2948 12.458 32.297C12.458 32.2992 12.458 32.3013 12.458 32.3035C12.458 32.3057 12.458 32.3079 12.458 32.3101C12.458 32.3123 12.458 32.3145 12.458 32.3167C12.458 32.3189 12.458 32.3211 12.458 32.3233C12.458 32.3255 12.458 32.3277 12.458 32.3299C12.458 32.3321 12.458 32.3343 12.458 32.3365C12.458 32.3386 12.458 32.3408 12.458 32.343C12.458 32.3452 12.458 32.3474 12.458 32.3496C12.458 32.3518 12.458 32.354 12.458 32.3562C12.458 32.3584 12.458 32.3606 12.458 32.3628C12.458 32.365 12.458 32.3672 12.458 32.3694C12.458 32.3716 12.458 32.3738 12.458 32.376C12.458 32.3782 12.458 32.3804 12.458 32.3826C12.458 32.3848 12.458 32.3871 12.458 32.3893C12.458 32.3915 12.458 32.3937 12.458 32.3959C12.458 32.3981 12.458 32.4003 12.458 32.4025C12.458 32.4047 12.458 32.4069 12.458 32.4091C12.458 32.4113 12.458 32.4135 12.458 32.4157C12.458 32.4179 12.458 32.4201 12.458 32.4223C12.458 32.4246 12.458 32.4268 12.458 32.429C12.458 32.4312 12.458 32.4334 12.458 32.4356C12.458 32.4378 12.458 32.44 12.458 32.4422C12.458 32.4444 12.458 32.4467 12.458 32.4489C12.458 32.4511 12.458 32.4533 12.458 32.4555C12.458 32.4577 12.458 32.4599 12.458 32.4621C12.458 32.4644 12.458 32.4666 12.458 32.4688C12.458 32.471 12.458 32.4732 12.458 32.4754C12.458 32.4776 12.458 32.4799 12.458 32.4821C12.458 32.4843 12.458 32.4865 12.458 32.4887C12.458 32.4909 12.458 32.4932 12.458 32.4954C12.458 32.4976 12.458 32.4998 12.458 32.502C12.458 32.5042 12.458 32.5065 12.458 32.5087C12.458 32.5109 12.458 32.5131 12.458 32.5153C12.458 32.5176 12.458 32.5198 12.458 32.522C12.458 32.5242 12.458 32.5264 12.458 32.5287C12.458 32.5309 12.458 32.5331 12.458 32.5353C12.458 32.5376 12.458 32.5398 12.458 32.542C12.458 32.5442 12.458 32.5465 12.458 32.5487C12.458 32.5509 12.458 32.5531 12.458 32.5554C12.458 32.5576 12.458 32.5598 12.458 32.562C12.458 32.5643 12.458 32.5665 12.458 32.5687C12.458 32.5709 12.458 32.5732 12.458 32.5754C12.458 32.5776 12.458 32.5799 12.458 32.5821C12.458 32.5843 12.458 32.5865 12.458 32.5888C12.458 32.591 12.458 32.5932 12.458 32.5955C12.458 32.5977 12.458 32.5999 12.458 32.6022C12.458 32.6044 12.458 32.6066 12.458 32.6089C12.458 32.6111 12.458 32.6133 12.458 32.6156C12.458 32.6178 12.458 32.62 12.458 32.6223C12.458 32.6245 12.458 32.6267 12.458 32.629C12.458 32.6312 12.458 32.6334 12.458 32.6357C12.458 32.6379 12.458 32.6401 12.458 32.6424C12.458 32.6446 12.458 32.6469 12.458 32.6491C12.458 32.6513 12.458 32.6536 12.458 32.6558C12.458 32.658 12.458 32.6603 12.458 32.6625C12.458 32.6648 12.458 32.667 12.458 32.6692C12.458 32.6715 12.458 32.6737 12.458 32.676C12.458 32.6782 12.458 32.6804 12.458 32.6827C12.458 32.6849 12.458 32.6872 12.458 32.6894C12.458 32.6917 12.458 32.6939 12.458 32.6961C12.458 32.6984 12.458 32.7006 12.458 32.7029C12.458 32.7051 12.458 32.7074 12.458 32.7096C12.458 32.7119 12.458 32.7141 12.458 32.7164C12.458 32.7186 12.458 32.7208 12.458 32.7231C12.458 32.7253 12.458 32.7276 12.458 32.7298C12.458 32.7321 12.458 32.7343 12.458 32.7366C12.458 32.7388 12.458 32.7411 12.458 32.7433C12.458 32.7456 12.458 32.7478 12.458 32.7501C12.458 32.7523 12.458 32.7546 12.458 32.7568C12.458 32.7591 12.458 32.7613 12.458 32.7636C12.458 32.7659 12.458 32.7681 12.458 32.7704C12.458 32.7726 12.458 32.7749 12.458 32.7771C12.458 32.7794 12.458 32.7816 12.458 32.7839C12.458 32.7861 12.458 32.7884 12.458 32.7906C12.458 32.7929 12.458 32.7952 12.458 32.7974C12.458 32.7997 12.458 32.8019 12.458 32.8042C12.458 32.8064 12.458 32.8087 12.458 32.811C12.458 32.8132 12.458 32.8155 12.458 32.8177C12.458 32.82 12.458 32.8223 12.458 32.8245C12.458 32.8268 12.458 32.829 12.458 32.8313C12.458 32.8336 12.458 32.8358 12.458 32.8381C12.458 32.8404 12.458 32.8426 12.458 32.8449C12.458 32.8471 12.458 32.8494 12.458 32.8517C12.458 32.8539 12.458 32.8562 12.458 32.8585C12.458 32.8607 12.458 32.863 12.458 32.8653C12.458 32.8675 12.458 32.8698 12.458 32.8721C12.458 32.8743 12.458 32.8766 12.458 32.8789C12.458 32.8811 12.458 32.8834 12.458 32.8857C12.458 32.8879 12.458 32.8902 12.458 32.8925C12.458 32.8947 12.458 32.897 12.458 32.8993C12.458 32.9016 12.458 32.9038 12.458 32.9061C12.458 32.9084 12.458 32.9106 12.458 32.9129C12.458 32.9152 12.458 32.9175 12.458 32.9197C12.458 32.922 12.458 32.9243 12.458 32.9265C12.458 32.9288 12.458 32.9311 12.458 32.9334C12.458 32.9356 12.458 32.9379 12.458 32.9402C12.458 32.9425 12.458 32.9447 12.458 32.947C12.458 32.9493 12.458 32.9516 12.458 32.9539C12.458 32.9561 12.458 32.9584 12.458 32.9607C12.458 32.963 12.458 32.9652 12.458 32.9675C12.458 32.9698 12.458 32.9721 12.458 32.9744C12.458 32.9766 12.458 32.9789 12.458 32.9812C12.458 32.9835 12.458 32.9858 12.458 32.988C12.458 32.9903 12.458 32.9926 12.458 32.9949C12.458 32.9972 12.458 32.9995 12.458 33.0017C12.458 33.004 12.458 33.0063 12.458 33.0086C12.458 33.0109 12.458 33.0132 12.458 33.0154C12.458 33.0177 12.458 33.02 12.458 33.0223C12.458 33.0246 12.458 33.0269 12.458 33.0292C12.458 33.0314 12.458 33.0337 12.458 33.036C12.458 33.0383 12.458 33.0406 12.458 33.0429C12.458 33.0452 12.458 33.0475 12.458 33.0498C12.458 33.052 12.458 33.0543 12.458 33.0566C12.458 33.0589 12.458 33.0612 12.458 33.0635C12.458 33.0658 12.458 33.0681 12.458 33.0704C12.458 33.0727 12.458 33.075 12.458 33.0772C12.458 33.0795 12.458 33.0818 12.458 33.0841C12.458 33.0864 12.458 33.0887 12.458 33.091C12.458 33.0933 12.458 33.0956 12.458 33.0979C12.458 33.1002 12.458 33.1025 12.458 33.1048C12.458 33.1071 12.458 33.1094 12.458 33.1117C12.458 33.114 12.458 33.1163 12.458 33.1186C12.458 33.1209 12.458 33.1232 12.458 33.1255C12.458 33.1278 12.458 33.1301 12.458 33.1324C12.458 33.1347 12.458 33.137 12.458 33.1393C12.458 33.1416 12.458 33.1439 12.458 33.1462C12.458 33.1485 12.458 33.1508 12.458 33.1531C12.458 33.1554 12.458 33.1577 12.458 33.16C12.458 33.1623 12.458 33.1646 12.458 33.1669C12.458 33.1692 12.458 33.1715 12.458 33.1738C12.458 33.1761 12.458 33.1784 12.458 33.1807C12.458 33.183 12.458 33.1853 12.458 33.1876C12.458 33.19 12.458 33.1923 12.458 33.1946C12.458 33.1969 12.458 33.1992 12.458 33.2015C12.458 33.2038 12.458 33.2061 12.458 33.2084C12.458 33.2107 12.458 33.213 12.458 33.2154C12.458 33.2177 12.458 33.22 12.458 33.2223C12.458 33.2246 12.458 33.2269 12.458 33.2292C12.458 33.2315 12.458 33.2338 12.458 33.2362C12.458 33.2385 12.458 33.2408 12.458 33.2431C12.458 33.2454 12.458 33.2477 12.458 33.25C12.458 33.2524 12.458 33.2547 12.458 33.257C12.458 33.2593 12.458 33.2616 12.458 33.2639C12.458 33.2663 12.458 33.2686 12.458 33.2709C12.458 33.2732 12.458 33.2755 12.458 33.2778C12.458 33.2802 12.458 33.2825 12.458 33.2848C12.458 33.2871 12.458 33.2894 12.458 33.2918C12.458 33.2941 12.458 33.2964 12.458 33.2987C12.458 33.301 12.458 33.3034 12.458 33.3057C12.458 33.308 12.458 33.3103 12.458 33.3126C12.458 33.315 12.458 33.3173 12.458 33.3196C12.458 33.3219 12.458 33.3243 12.458 33.3266C12.458 33.3289 12.458 33.3312 12.458 33.3336C12.458 33.3359 12.458 33.3382 12.458 33.3405C12.458 33.3429 12.458 33.3452 12.458 33.3475C12.458 33.3498 12.458 33.3522 12.458 33.3545C12.458 33.3568 12.458 33.3592 12.458 33.3615C12.458 33.3638 12.458 33.3661 12.458 33.3685C12.458 33.3708 12.458 33.3731 12.458 33.3755C12.458 33.3778 12.458 33.3801 12.458 33.3825C12.458 33.3848 12.458 33.3871 12.458 33.3895C12.458 33.3918 12.458 33.3941 12.458 33.3965C12.458 33.3988 12.458 33.4011 12.458 33.4035C12.458 33.4058 12.458 33.4081 12.458 33.4105C12.458 33.4128 12.458 33.4151 12.458 33.4175C12.458 33.4198 12.458 33.4221 12.458 33.4245C12.458 33.4268 12.458 33.4291 12.458 33.4315C12.458 33.4338 12.458 33.4362 12.458 33.4385C12.458 33.4408 12.458 33.4432 12.458 33.4455C12.458 33.4479 12.458 33.4502 12.458 33.4525C12.458 33.4549 12.458 33.4572 12.458 33.4596C12.458 33.4619 12.458 33.4642 12.458 33.4666C12.458 33.4689 12.458 33.4713 12.458 33.4736C12.458 33.4759 12.458 33.4783 12.458 33.4806C12.458 33.483 12.458 33.4853 12.458 33.4877C12.458 33.49 12.458 33.4924 12.458 33.4947C12.458 33.497 12.458 33.4994 12.458 33.5017C12.458 33.5041 12.458 33.5064 12.458 33.5088C12.458 33.5111 12.458 33.5135 12.458 33.5158C12.458 33.5182 12.458 33.5205 12.458 33.5229C12.458 33.5252 12.458 33.5276 12.458 33.5299C12.458 33.5323 12.458 33.5346 12.458 33.537C12.458 33.5393 12.458 33.5417 12.458 33.544C12.458 33.5464 12.458 33.5487 12.458 33.5511C12.458 33.5534 12.458 33.5558 12.458 33.5581C12.458 33.5605 12.458 33.5628 12.458 33.5652C12.458 33.5676 12.458 33.5699 12.458 33.5723C12.458 33.5746 12.458 33.577 12.458 33.5793C12.458 33.5817 12.458 33.584 12.458 33.5864C12.458 33.5888 12.458 33.5911 12.458 33.5935C12.458 33.5958 12.458 33.5982 12.458 33.6005C12.458 33.6029 12.458 33.6053 12.458 33.6076C12.458 33.61 12.458 33.6123 12.458 33.6147C12.458 33.6171 12.458 33.6194 12.458 33.6218C12.458 33.6241 12.458 33.6265 12.458 33.6289C12.458 33.6312 12.458 33.6336 12.458 33.636C12.458 33.6383 12.458 33.6407 12.458 33.643C12.458 33.6454 12.458 33.6478 12.458 33.6501C12.458 33.6525 12.458 33.6549 12.458 33.6572C12.458 33.6596 12.458 33.662 12.458 33.6643C12.458 33.6667 12.458 33.6691 12.458 33.6714C12.458 33.6738 12.458 33.6762 12.458 33.6785C12.458 33.6809 12.458 33.6833 12.458 33.6856C12.458 33.688 12.458 33.6904 12.458 33.6927C12.458 33.6951 12.458 33.6975 12.458 33.6999C12.458 33.7022 12.458 33.7046 12.458 33.707C12.458 33.7093 12.458 33.7117 12.458 33.7141C12.458 33.7165 12.458 33.7188 12.458 33.7212C12.458 33.7236 12.458 33.726 12.458 33.7283C12.458 33.7307 12.458 33.7331 12.458 33.7355C12.458 33.7378 12.458 33.7402 12.458 33.7426C12.458 33.745 12.458 33.7473 12.458 33.7497C12.458 33.7521 12.458 33.7545 12.458 33.7568C12.458 33.7592 12.458 33.7616 12.458 33.764C12.458 33.7664 12.458 33.7687 12.458 33.7711C12.458 33.7735 12.458 33.7759 12.458 33.7783C12.458 33.7806 12.458 33.783 12.458 33.7854C12.458 33.7878 12.458 33.7902 12.458 33.7925C12.458 33.7949 12.458 33.7973 12.458 33.7997C12.458 33.8021 12.458 33.8045 12.458 33.8068C12.458 33.8092 12.458 33.8116 12.458 33.814C12.458 33.8164 12.458 33.8188 12.458 33.8211C12.458 33.8235 12.458 33.8259 12.458 33.8283C12.458 33.8307 12.458 33.8331 12.458 33.8355C12.458 33.8379 12.458 33.8402 12.458 33.8426C12.458 33.845 12.458 33.8474 12.458 33.8498C12.458 33.8522 12.458 33.8546 12.458 33.857C12.458 33.8594 12.458 33.8617 12.458 33.8641C12.458 33.8665 12.458 33.8689 12.458 33.8713C12.458 33.8737 12.458 33.8761 12.458 33.8785C12.458 33.8809 12.458 33.8833 12.458 33.8857C12.458 33.8881 12.458 33.8905 12.458 33.8929C12.458 33.8952 12.458 33.8976 12.458 33.9C12.458 33.9024 12.458 33.9048 12.458 33.9072C12.458 33.9096 12.458 33.912 12.458 33.9144C12.458 33.9168 12.458 33.9192 12.458 33.9216C12.458 33.924 12.458 33.9264 12.458 33.9288C12.458 33.9312 12.458 33.9336 12.458 33.936C12.458 33.9384 12.458 33.9408 12.458 33.9432C12.458 33.9456 12.458 33.948 12.458 33.9504C12.458 33.9528 12.458 33.9552 12.458 33.9576C12.458 33.96 12.458 33.9624 12.458 33.9648C12.458 33.9672 12.458 33.9696 12.458 33.972C12.458 33.9744 12.458 33.9768 12.458 33.9792C12.458 33.9816 12.458 33.9841 12.458 33.9865C12.458 33.9889 12.458 33.9913 12.458 33.9937C12.458 33.9961 12.458 33.9985 12.458 34.0009C12.458 34.0033 12.458 34.0057 12.458 34.0081C12.458 34.0105 12.458 34.0129 12.458 34.0153C12.458 34.0178 12.458 34.0202 12.458 34.0226C12.458 34.025 12.458 34.0274 12.458 34.0298C12.458 34.0322 12.458 34.0346 12.458 34.037C12.458 34.0395 12.458 34.0419 12.458 34.0443C12.458 34.0467 12.458 34.0491 12.458 34.0515C12.458 34.0539 12.458 34.0563 12.458 34.0588C12.458 34.0612 12.458 34.0636 12.458 34.066C12.458 34.0684 12.458 34.0708 12.458 34.0733C12.458 34.0757 12.458 34.0781 12.458 34.0805C12.458 34.0829 12.458 34.0853 12.458 34.0878C12.458 34.0902 12.458 34.0926 12.458 34.095C12.458 34.0974 12.458 34.0998 12.458 34.1023C12.458 34.1047 12.458 34.1071 12.458 34.1095C12.458 34.1119 12.458 34.1144 12.458 34.1168C12.458 34.1192 12.458 34.1216 12.458 34.1241C12.458 34.1265 12.458 34.1289 12.458 34.1313C12.458 34.1338 12.458 34.1362 12.458 34.1386C12.458 34.141 12.458 34.1434 12.458 34.1459C12.458 34.1483 12.458 34.1507 12.458 34.1531C12.458 34.1556 12.458 34.158 12.458 34.1604C12.458 34.1629 12.458 34.1653 12.458 34.1677C12.458 34.1701 12.458 34.1726 12.458 34.175C12.458 34.1774 12.458 34.1799 12.458 34.1823C12.458 34.1847 12.458 34.1871 12.458 34.1896C12.458 34.192 12.458 34.1944 12.458 34.1969C12.458 34.1993 12.458 34.2017 12.458 34.2042C12.458 34.2066 12.458 34.209 12.458 34.2115C12.458 34.2139 12.458 34.2163 12.458 34.2188C12.458 34.2212 12.458 34.2236 12.458 34.2261C12.458 34.2285 12.458 34.2309 12.458 34.2334C12.458 34.2358 12.458 34.2382 12.458 34.2407C12.458 34.2431 12.458 34.2455 12.458 34.248C12.458 34.2504 12.458 34.2529 12.458 34.2553C12.458 34.2577 12.458 34.2602 12.458 34.2626C12.458 34.265 12.458 34.2675 12.458 34.2699C12.458 34.2724 12.458 34.2748 12.458 34.2773C12.458 34.2797 12.458 34.2821 12.458 34.2846C12.458 34.287 12.458 34.2895 12.458 34.2919C12.458 34.2943 12.458 34.2968 12.458 34.2992C12.458 34.3017 12.458 34.3041 12.458 34.3066C12.458 34.309 12.458 34.3115 12.458 34.3139C12.458 34.3163 12.458 34.3188 12.458 34.3212C12.458 34.3237 12.458 34.3261 12.458 34.3286C12.458 34.331 12.458 34.3335 12.458 34.3359C12.458 34.3384 12.458 34.3408 12.458 34.3433C12.458 34.3457 12.458 34.3482 12.458 34.3506C12.458 34.3531 12.458 34.3555 12.458 34.358C12.458 34.3604 12.458 34.3629 12.458 34.3653C12.458 34.3678 12.458 34.3702 12.458 34.3727C12.458 34.3751 12.458 34.3776 12.458 34.38C12.458 34.3825 12.458 34.3849 12.458 34.3874C12.458 34.3898 12.458 34.3923 12.458 34.3947C12.458 34.3972 12.458 34.3997 12.458 34.4021C12.458 34.4046 12.458 34.407 12.458 34.4095C12.458 34.4119 12.458 34.4144 12.458 34.4169C12.458 34.4193 12.458 34.4218 12.458 34.4242C12.458 34.4267 12.458 34.4291 12.458 34.4316C12.458 34.4341 12.458 34.4365 12.458 34.439C12.458 34.4414 12.458 34.4439 12.458 34.4464C12.458 34.4488 12.458 34.4513 12.458 34.4537C12.458 34.4562 12.458 34.4587 12.458 34.4611C12.458 34.4636 12.458 34.4661 12.458 34.4685H16.458C16.458 34.4661 16.458 34.4636 16.458 34.4611C16.458 34.4587 16.458 34.4562 16.458 34.4537C16.458 34.4513 16.458 34.4488 16.458 34.4464C16.458 34.4439 16.458 34.4414 16.458 34.439C16.458 34.4365 16.458 34.4341 16.458 34.4316C16.458 34.4291 16.458 34.4267 16.458 34.4242C16.458 34.4218 16.458 34.4193 16.458 34.4169C16.458 34.4144 16.458 34.4119 16.458 34.4095C16.458 34.407 16.458 34.4046 16.458 34.4021C16.458 34.3997 16.458 34.3972 16.458 34.3947C16.458 34.3923 16.458 34.3898 16.458 34.3874C16.458 34.3849 16.458 34.3825 16.458 34.38C16.458 34.3776 16.458 34.3751 16.458 34.3727C16.458 34.3702 16.458 34.3678 16.458 34.3653C16.458 34.3629 16.458 34.3604 16.458 34.358C16.458 34.3555 16.458 34.3531 16.458 34.3506C16.458 34.3482 16.458 34.3457 16.458 34.3433C16.458 34.3408 16.458 34.3384 16.458 34.3359C16.458 34.3335 16.458 34.331 16.458 34.3286C16.458 34.3261 16.458 34.3237 16.458 34.3212C16.458 34.3188 16.458 34.3163 16.458 34.3139C16.458 34.3115 16.458 34.309 16.458 34.3066C16.458 34.3041 16.458 34.3017 16.458 34.2992C16.458 34.2968 16.458 34.2943 16.458 34.2919C16.458 34.2895 16.458 34.287 16.458 34.2846C16.458 34.2821 16.458 34.2797 16.458 34.2773C16.458 34.2748 16.458 34.2724 16.458 34.2699C16.458 34.2675 16.458 34.265 16.458 34.2626C16.458 34.2602 16.458 34.2577 16.458 34.2553C16.458 34.2529 16.458 34.2504 16.458 34.248C16.458 34.2455 16.458 34.2431 16.458 34.2407C16.458 34.2382 16.458 34.2358 16.458 34.2334C16.458 34.2309 16.458 34.2285 16.458 34.2261C16.458 34.2236 16.458 34.2212 16.458 34.2188C16.458 34.2163 16.458 34.2139 16.458 34.2115C16.458 34.209 16.458 34.2066 16.458 34.2042C16.458 34.2017 16.458 34.1993 16.458 34.1969C16.458 34.1944 16.458 34.192 16.458 34.1896C16.458 34.1871 16.458 34.1847 16.458 34.1823C16.458 34.1799 16.458 34.1774 16.458 34.175C16.458 34.1726 16.458 34.1701 16.458 34.1677C16.458 34.1653 16.458 34.1629 16.458 34.1604C16.458 34.158 16.458 34.1556 16.458 34.1531C16.458 34.1507 16.458 34.1483 16.458 34.1459C16.458 34.1434 16.458 34.141 16.458 34.1386C16.458 34.1362 16.458 34.1338 16.458 34.1313C16.458 34.1289 16.458 34.1265 16.458 34.1241C16.458 34.1216 16.458 34.1192 16.458 34.1168C16.458 34.1144 16.458 34.1119 16.458 34.1095C16.458 34.1071 16.458 34.1047 16.458 34.1023C16.458 34.0998 16.458 34.0974 16.458 34.095C16.458 34.0926 16.458 34.0902 16.458 34.0878C16.458 34.0853 16.458 34.0829 16.458 34.0805C16.458 34.0781 16.458 34.0757 16.458 34.0733C16.458 34.0708 16.458 34.0684 16.458 34.066C16.458 34.0636 16.458 34.0612 16.458 34.0588C16.458 34.0563 16.458 34.0539 16.458 34.0515C16.458 34.0491 16.458 34.0467 16.458 34.0443C16.458 34.0419 16.458 34.0395 16.458 34.037C16.458 34.0346 16.458 34.0322 16.458 34.0298C16.458 34.0274 16.458 34.025 16.458 34.0226C16.458 34.0202 16.458 34.0178 16.458 34.0153C16.458 34.0129 16.458 34.0105 16.458 34.0081C16.458 34.0057 16.458 34.0033 16.458 34.0009C16.458 33.9985 16.458 33.9961 16.458 33.9937C16.458 33.9913 16.458 33.9889 16.458 33.9865C16.458 33.9841 16.458 33.9816 16.458 33.9792C16.458 33.9768 16.458 33.9744 16.458 33.972C16.458 33.9696 16.458 33.9672 16.458 33.9648C16.458 33.9624 16.458 33.96 16.458 33.9576C16.458 33.9552 16.458 33.9528 16.458 33.9504C16.458 33.948 16.458 33.9456 16.458 33.9432C16.458 33.9408 16.458 33.9384 16.458 33.936C16.458 33.9336 16.458 33.9312 16.458 33.9288C16.458 33.9264 16.458 33.924 16.458 33.9216C16.458 33.9192 16.458 33.9168 16.458 33.9144C16.458 33.912 16.458 33.9096 16.458 33.9072C16.458 33.9048 16.458 33.9024 16.458 33.9C16.458 33.8976 16.458 33.8952 16.458 33.8929C16.458 33.8905 16.458 33.8881 16.458 33.8857C16.458 33.8833 16.458 33.8809 16.458 33.8785C16.458 33.8761 16.458 33.8737 16.458 33.8713C16.458 33.8689 16.458 33.8665 16.458 33.8641C16.458 33.8617 16.458 33.8594 16.458 33.857C16.458 33.8546 16.458 33.8522 16.458 33.8498C16.458 33.8474 16.458 33.845 16.458 33.8426C16.458 33.8402 16.458 33.8379 16.458 33.8355C16.458 33.8331 16.458 33.8307 16.458 33.8283C16.458 33.8259 16.458 33.8235 16.458 33.8211C16.458 33.8188 16.458 33.8164 16.458 33.814C16.458 33.8116 16.458 33.8092 16.458 33.8068C16.458 33.8045 16.458 33.8021 16.458 33.7997C16.458 33.7973 16.458 33.7949 16.458 33.7925C16.458 33.7902 16.458 33.7878 16.458 33.7854C16.458 33.783 16.458 33.7806 16.458 33.7783C16.458 33.7759 16.458 33.7735 16.458 33.7711C16.458 33.7687 16.458 33.7664 16.458 33.764C16.458 33.7616 16.458 33.7592 16.458 33.7568C16.458 33.7545 16.458 33.7521 16.458 33.7497C16.458 33.7473 16.458 33.745 16.458 33.7426C16.458 33.7402 16.458 33.7378 16.458 33.7355C16.458 33.7331 16.458 33.7307 16.458 33.7283C16.458 33.726 16.458 33.7236 16.458 33.7212C16.458 33.7188 16.458 33.7165 16.458 33.7141C16.458 33.7117 16.458 33.7093 16.458 33.707C16.458 33.7046 16.458 33.7022 16.458 33.6999C16.458 33.6975 16.458 33.6951 16.458 33.6927C16.458 33.6904 16.458 33.688 16.458 33.6856C16.458 33.6833 16.458 33.6809 16.458 33.6785C16.458 33.6762 16.458 33.6738 16.458 33.6714C16.458 33.6691 16.458 33.6667 16.458 33.6643C16.458 33.662 16.458 33.6596 16.458 33.6572C16.458 33.6549 16.458 33.6525 16.458 33.6501C16.458 33.6478 16.458 33.6454 16.458 33.643C16.458 33.6407 16.458 33.6383 16.458 33.636C16.458 33.6336 16.458 33.6312 16.458 33.6289C16.458 33.6265 16.458 33.6241 16.458 33.6218C16.458 33.6194 16.458 33.6171 16.458 33.6147C16.458 33.6123 16.458 33.61 16.458 33.6076C16.458 33.6053 16.458 33.6029 16.458 33.6005C16.458 33.5982 16.458 33.5958 16.458 33.5935C16.458 33.5911 16.458 33.5888 16.458 33.5864C16.458 33.584 16.458 33.5817 16.458 33.5793C16.458 33.577 16.458 33.5746 16.458 33.5723C16.458 33.5699 16.458 33.5676 16.458 33.5652C16.458 33.5628 16.458 33.5605 16.458 33.5581C16.458 33.5558 16.458 33.5534 16.458 33.5511C16.458 33.5487 16.458 33.5464 16.458 33.544C16.458 33.5417 16.458 33.5393 16.458 33.537C16.458 33.5346 16.458 33.5323 16.458 33.5299C16.458 33.5276 16.458 33.5252 16.458 33.5229C16.458 33.5205 16.458 33.5182 16.458 33.5158C16.458 33.5135 16.458 33.5111 16.458 33.5088C16.458 33.5064 16.458 33.5041 16.458 33.5017C16.458 33.4994 16.458 33.497 16.458 33.4947C16.458 33.4924 16.458 33.49 16.458 33.4877C16.458 33.4853 16.458 33.483 16.458 33.4806C16.458 33.4783 16.458 33.4759 16.458 33.4736C16.458 33.4713 16.458 33.4689 16.458 33.4666C16.458 33.4642 16.458 33.4619 16.458 33.4596C16.458 33.4572 16.458 33.4549 16.458 33.4525C16.458 33.4502 16.458 33.4479 16.458 33.4455C16.458 33.4432 16.458 33.4408 16.458 33.4385C16.458 33.4362 16.458 33.4338 16.458 33.4315C16.458 33.4291 16.458 33.4268 16.458 33.4245C16.458 33.4221 16.458 33.4198 16.458 33.4175C16.458 33.4151 16.458 33.4128 16.458 33.4105C16.458 33.4081 16.458 33.4058 16.458 33.4035C16.458 33.4011 16.458 33.3988 16.458 33.3965C16.458 33.3941 16.458 33.3918 16.458 33.3895C16.458 33.3871 16.458 33.3848 16.458 33.3825C16.458 33.3801 16.458 33.3778 16.458 33.3755C16.458 33.3731 16.458 33.3708 16.458 33.3685C16.458 33.3661 16.458 33.3638 16.458 33.3615C16.458 33.3592 16.458 33.3568 16.458 33.3545C16.458 33.3522 16.458 33.3498 16.458 33.3475C16.458 33.3452 16.458 33.3429 16.458 33.3405C16.458 33.3382 16.458 33.3359 16.458 33.3336C16.458 33.3312 16.458 33.3289 16.458 33.3266C16.458 33.3243 16.458 33.3219 16.458 33.3196C16.458 33.3173 16.458 33.315 16.458 33.3126C16.458 33.3103 16.458 33.308 16.458 33.3057C16.458 33.3034 16.458 33.301 16.458 33.2987C16.458 33.2964 16.458 33.2941 16.458 33.2918C16.458 33.2894 16.458 33.2871 16.458 33.2848C16.458 33.2825 16.458 33.2802 16.458 33.2778C16.458 33.2755 16.458 33.2732 16.458 33.2709C16.458 33.2686 16.458 33.2663 16.458 33.2639C16.458 33.2616 16.458 33.2593 16.458 33.257C16.458 33.2547 16.458 33.2524 16.458 33.25C16.458 33.2477 16.458 33.2454 16.458 33.2431C16.458 33.2408 16.458 33.2385 16.458 33.2362C16.458 33.2338 16.458 33.2315 16.458 33.2292C16.458 33.2269 16.458 33.2246 16.458 33.2223C16.458 33.22 16.458 33.2177 16.458 33.2154C16.458 33.213 16.458 33.2107 16.458 33.2084C16.458 33.2061 16.458 33.2038 16.458 33.2015C16.458 33.1992 16.458 33.1969 16.458 33.1946C16.458 33.1923 16.458 33.19 16.458 33.1876C16.458 33.1853 16.458 33.183 16.458 33.1807C16.458 33.1784 16.458 33.1761 16.458 33.1738C16.458 33.1715 16.458 33.1692 16.458 33.1669C16.458 33.1646 16.458 33.1623 16.458 33.16C16.458 33.1577 16.458 33.1554 16.458 33.1531C16.458 33.1508 16.458 33.1485 16.458 33.1462C16.458 33.1439 16.458 33.1416 16.458 33.1393C16.458 33.137 16.458 33.1347 16.458 33.1324C16.458 33.1301 16.458 33.1278 16.458 33.1255C16.458 33.1232 16.458 33.1209 16.458 33.1186C16.458 33.1163 16.458 33.114 16.458 33.1117C16.458 33.1094 16.458 33.1071 16.458 33.1048C16.458 33.1025 16.458 33.1002 16.458 33.0979C16.458 33.0956 16.458 33.0933 16.458 33.091C16.458 33.0887 16.458 33.0864 16.458 33.0841C16.458 33.0818 16.458 33.0795 16.458 33.0772C16.458 33.075 16.458 33.0727 16.458 33.0704C16.458 33.0681 16.458 33.0658 16.458 33.0635C16.458 33.0612 16.458 33.0589 16.458 33.0566C16.458 33.0543 16.458 33.052 16.458 33.0498C16.458 33.0475 16.458 33.0452 16.458 33.0429C16.458 33.0406 16.458 33.0383 16.458 33.036C16.458 33.0337 16.458 33.0314 16.458 33.0292C16.458 33.0269 16.458 33.0246 16.458 33.0223C16.458 33.02 16.458 33.0177 16.458 33.0154C16.458 33.0132 16.458 33.0109 16.458 33.0086C16.458 33.0063 16.458 33.004 16.458 33.0017C16.458 32.9995 16.458 32.9972 16.458 32.9949C16.458 32.9926 16.458 32.9903 16.458 32.988C16.458 32.9858 16.458 32.9835 16.458 32.9812C16.458 32.9789 16.458 32.9766 16.458 32.9744C16.458 32.9721 16.458 32.9698 16.458 32.9675C16.458 32.9652 16.458 32.963 16.458 32.9607C16.458 32.9584 16.458 32.9561 16.458 32.9539C16.458 32.9516 16.458 32.9493 16.458 32.947C16.458 32.9447 16.458 32.9425 16.458 32.9402C16.458 32.9379 16.458 32.9356 16.458 32.9334C16.458 32.9311 16.458 32.9288 16.458 32.9265C16.458 32.9243 16.458 32.922 16.458 32.9197C16.458 32.9175 16.458 32.9152 16.458 32.9129C16.458 32.9106 16.458 32.9084 16.458 32.9061C16.458 32.9038 16.458 32.9016 16.458 32.8993C16.458 32.897 16.458 32.8947 16.458 32.8925C16.458 32.8902 16.458 32.8879 16.458 32.8857C16.458 32.8834 16.458 32.8811 16.458 32.8789C16.458 32.8766 16.458 32.8743 16.458 32.8721C16.458 32.8698 16.458 32.8675 16.458 32.8653C16.458 32.863 16.458 32.8607 16.458 32.8585C16.458 32.8562 16.458 32.8539 16.458 32.8517C16.458 32.8494 16.458 32.8471 16.458 32.8449C16.458 32.8426 16.458 32.8404 16.458 32.8381C16.458 32.8358 16.458 32.8336 16.458 32.8313C16.458 32.829 16.458 32.8268 16.458 32.8245C16.458 32.8223 16.458 32.82 16.458 32.8177C16.458 32.8155 16.458 32.8132 16.458 32.811C16.458 32.8087 16.458 32.8064 16.458 32.8042C16.458 32.8019 16.458 32.7997 16.458 32.7974C16.458 32.7952 16.458 32.7929 16.458 32.7906C16.458 32.7884 16.458 32.7861 16.458 32.7839C16.458 32.7816 16.458 32.7794 16.458 32.7771C16.458 32.7749 16.458 32.7726 16.458 32.7704C16.458 32.7681 16.458 32.7659 16.458 32.7636C16.458 32.7613 16.458 32.7591 16.458 32.7568C16.458 32.7546 16.458 32.7523 16.458 32.7501C16.458 32.7478 16.458 32.7456 16.458 32.7433C16.458 32.7411 16.458 32.7388 16.458 32.7366C16.458 32.7343 16.458 32.7321 16.458 32.7298C16.458 32.7276 16.458 32.7253 16.458 32.7231C16.458 32.7208 16.458 32.7186 16.458 32.7164C16.458 32.7141 16.458 32.7119 16.458 32.7096C16.458 32.7074 16.458 32.7051 16.458 32.7029C16.458 32.7006 16.458 32.6984 16.458 32.6961C16.458 32.6939 16.458 32.6917 16.458 32.6894C16.458 32.6872 16.458 32.6849 16.458 32.6827C16.458 32.6804 16.458 32.6782 16.458 32.676C16.458 32.6737 16.458 32.6715 16.458 32.6692C16.458 32.667 16.458 32.6648 16.458 32.6625C16.458 32.6603 16.458 32.658 16.458 32.6558C16.458 32.6536 16.458 32.6513 16.458 32.6491C16.458 32.6469 16.458 32.6446 16.458 32.6424C16.458 32.6401 16.458 32.6379 16.458 32.6357C16.458 32.6334 16.458 32.6312 16.458 32.629C16.458 32.6267 16.458 32.6245 16.458 32.6223C16.458 32.62 16.458 32.6178 16.458 32.6156C16.458 32.6133 16.458 32.6111 16.458 32.6089C16.458 32.6066 16.458 32.6044 16.458 32.6022C16.458 32.5999 16.458 32.5977 16.458 32.5955C16.458 32.5932 16.458 32.591 16.458 32.5888C16.458 32.5865 16.458 32.5843 16.458 32.5821C16.458 32.5799 16.458 32.5776 16.458 32.5754C16.458 32.5732 16.458 32.5709 16.458 32.5687C16.458 32.5665 16.458 32.5643 16.458 32.562C16.458 32.5598 16.458 32.5576 16.458 32.5554C16.458 32.5531 16.458 32.5509 16.458 32.5487C16.458 32.5465 16.458 32.5442 16.458 32.542C16.458 32.5398 16.458 32.5376 16.458 32.5353C16.458 32.5331 16.458 32.5309 16.458 32.5287C16.458 32.5264 16.458 32.5242 16.458 32.522C16.458 32.5198 16.458 32.5176 16.458 32.5153C16.458 32.5131 16.458 32.5109 16.458 32.5087C16.458 32.5065 16.458 32.5042 16.458 32.502C16.458 32.4998 16.458 32.4976 16.458 32.4954C16.458 32.4932 16.458 32.4909 16.458 32.4887C16.458 32.4865 16.458 32.4843 16.458 32.4821C16.458 32.4799 16.458 32.4776 16.458 32.4754C16.458 32.4732 16.458 32.471 16.458 32.4688C16.458 32.4666 16.458 32.4644 16.458 32.4621C16.458 32.4599 16.458 32.4577 16.458 32.4555C16.458 32.4533 16.458 32.4511 16.458 32.4489C16.458 32.4467 16.458 32.4444 16.458 32.4422C16.458 32.44 16.458 32.4378 16.458 32.4356C16.458 32.4334 16.458 32.4312 16.458 32.429C16.458 32.4268 16.458 32.4246 16.458 32.4223C16.458 32.4201 16.458 32.4179 16.458 32.4157C16.458 32.4135 16.458 32.4113 16.458 32.4091C16.458 32.4069 16.458 32.4047 16.458 32.4025C16.458 32.4003 16.458 32.3981 16.458 32.3959C16.458 32.3937 16.458 32.3915 16.458 32.3893C16.458 32.3871 16.458 32.3848 16.458 32.3826C16.458 32.3804 16.458 32.3782 16.458 32.376C16.458 32.3738 16.458 32.3716 16.458 32.3694C16.458 32.3672 16.458 32.365 16.458 32.3628C16.458 32.3606 16.458 32.3584 16.458 32.3562C16.458 32.354 16.458 32.3518 16.458 32.3496C16.458 32.3474 16.458 32.3452 16.458 32.343C16.458 32.3408 16.458 32.3386 16.458 32.3365C16.458 32.3343 16.458 32.3321 16.458 32.3299C16.458 32.3277 16.458 32.3255 16.458 32.3233C16.458 32.3211 16.458 32.3189 16.458 32.3167C16.458 32.3145 16.458 32.3123 16.458 32.3101C16.458 32.3079 16.458 32.3057 16.458 32.3035C16.458 32.3013 16.458 32.2992 16.458 32.297C16.458 32.2948 16.458 32.2926 16.458 32.2904C16.458 32.2882 16.458 32.286 16.458 32.2838C16.458 32.2816 16.458 32.2794 16.458 32.2772C16.458 32.2751 16.458 32.2729 16.458 32.2707C16.458 32.2685 16.458 32.2663 16.458 32.2641C16.458 32.2619 16.458 32.2597 16.458 32.2576C16.458 32.2554 16.458 32.2532 16.458 32.251C16.458 32.2488 16.458 32.2466 16.458 32.2444C16.458 32.2423 16.458 32.2401 16.458 32.2379C16.458 32.2357 16.458 32.2335 16.458 32.2313C16.458 32.2292 16.458 32.227 16.458 32.2248C16.458 32.2226 16.458 32.2204 16.458 32.2183C16.458 32.2161 16.458 32.2139 16.458 32.2117C16.458 32.2095 16.458 32.2074 16.458 32.2052C16.458 32.203 16.458 32.2008 16.458 32.1986C16.458 32.1965 16.458 32.1943 16.458 32.1921C16.458 32.1899 16.458 32.1878 16.458 32.1856C16.458 32.1834 16.458 32.1812 16.458 32.179C16.458 32.1769 16.458 32.1747 16.458 32.1725C16.458 32.1703 16.458 32.1682 16.458 32.166C16.458 32.1638 16.458 32.1616 16.458 32.1595C16.458 32.1573 16.458 32.1551 16.458 32.153C16.458 32.1508 16.458 32.1486 16.458 32.1464C16.458 32.1443 16.458 32.1421 16.458 32.1399C16.458 32.1378 16.458 32.1356 16.458 32.1334C16.458 32.1312 16.458 32.1291 16.458 32.1269C16.458 32.1247 16.458 32.1226 16.458 32.1204C16.458 32.1182 16.458 32.1161 16.458 32.1139C16.458 32.1117 16.458 32.1096 16.458 32.1074C16.458 32.1052 16.458 32.1031 16.458 32.1009C16.458 32.0987 16.458 32.0966 16.458 32.0944C16.458 32.0923 16.458 32.0901 16.458 32.0879C16.458 32.0858 16.458 32.0836 16.458 32.0814C16.458 32.0793 16.458 32.0771 16.458 32.0749C16.458 32.0728 16.458 32.0706 16.458 32.0685C16.458 32.0663 16.458 32.0641 16.458 32.062C16.458 32.0598 16.458 32.0577 16.458 32.0555C16.458 32.0533 16.458 32.0512 16.458 32.049C16.458 32.0469 16.458 32.0447 16.458 32.0426C16.458 32.0404 16.458 32.0382 16.458 32.0361C16.458 32.0339 16.458 32.0318 16.458 32.0296C16.458 32.0275 16.458 32.0253 16.458 32.0231C16.458 32.021 16.458 32.0188 16.458 32.0167C16.458 32.0145 16.458 32.0124 16.458 32.0102C16.458 32.0081 16.458 32.0059 16.458 32.0038C16.458 32.0016 16.458 31.9995 16.458 31.9973C16.458 31.9952 16.458 31.993 16.458 31.9909C16.458 31.9887 16.458 31.9866 16.458 31.9844C16.458 31.9823 16.458 31.9801 16.458 31.978C16.458 31.9758 16.458 31.9737 16.458 31.9715C16.458 31.9694 16.458 31.9672 16.458 31.9651C16.458 31.9629 16.458 31.9608 16.458 31.9586C16.458 31.9565 16.458 31.9543 16.458 31.9522C16.458 31.9501 16.458 31.9479 16.458 31.9458C16.458 31.9436 16.458 31.9415 16.458 31.9393C16.458 31.9372 16.458 31.9351 16.458 31.9329C16.458 31.9308 16.458 31.9286 16.458 31.9265C16.458 31.9243 16.458 31.9222 16.458 31.9201C16.458 31.9179 16.458 31.9158 16.458 31.9136C16.458 31.9115 16.458 31.9094 16.458 31.9072C16.458 31.9051 16.458 31.9029 16.458 31.9008C16.458 31.8987 16.458 31.8965 16.458 31.8944C16.458 31.8923 16.458 31.8901 16.458 31.888C16.458 31.8858 16.458 31.8837 16.458 31.8816C16.458 31.8794 16.458 31.8773 16.458 31.8752C16.458 31.873 16.458 31.8709 16.458 31.8688C16.458 31.8666 16.458 31.8645 16.458 31.8624C16.458 31.8602 16.458 31.8581 16.458 31.856C16.458 31.8538 16.458 31.8517 16.458 31.8496C16.458 31.8474 16.458 31.8453 16.458 31.8432C16.458 31.841 16.458 31.8389 16.458 31.8368C16.458 31.8347 16.458 31.8325 16.458 31.8304C16.458 31.8283 16.458 31.8261 16.458 31.824C16.458 31.8219 16.458 31.8198 16.458 31.8176C16.458 31.8155 16.458 31.8134 16.458 31.8113C16.458 31.8091 16.458 31.807 16.458 31.8049C16.458 31.8028 16.458 31.8006 16.458 31.7985C16.458 31.7964 16.458 31.7943 16.458 31.7921C16.458 31.79 16.458 31.7879 16.458 31.7858C16.458 31.7836 16.458 31.7815 16.458 31.7794C16.458 31.7773 16.458 31.7752 16.458 31.773C16.458 31.7709 16.458 31.7688 16.458 31.7667C16.458 31.7646 16.458 31.7624 16.458 31.7603C16.458 31.7582 16.458 31.7561 16.458 31.754C16.458 31.7519 16.458 31.7497 16.458 31.7476C16.458 31.7455 16.458 31.7434 16.458 31.7413C16.458 31.7392 16.458 31.737 16.458 31.7349C16.458 31.7328 16.458 31.7307 16.458 31.7286C16.458 31.7265 16.458 31.7243 16.458 31.7222C16.458 31.7201 16.458 31.718 16.458 31.7159C16.458 31.7138 16.458 31.7117 16.458 31.7096C16.458 31.7074 16.458 31.7053 16.458 31.7032C16.458 31.7011 16.458 31.699 16.458 31.6969C16.458 31.6948 16.458 31.6927 16.458 31.6906C16.458 31.6884 16.458 31.6863 16.458 31.6842C16.458 31.6821 16.458 31.68 16.458 31.6779C16.458 31.6758 16.458 31.6737 16.458 31.6716C16.458 31.6695 16.458 31.6674 16.458 31.6653C16.458 31.6632 16.458 31.6611 16.458 31.659C16.458 31.6568 16.458 31.6547 16.458 31.6526C16.458 31.6505 16.458 31.6484 16.458 31.6463C16.458 31.6442 16.458 31.6421 16.458 31.64C16.458 31.6379 16.458 31.6358 16.458 31.6337C16.458 31.6316 16.458 31.6295 16.458 31.6274C16.458 31.6253 16.458 31.6232 16.458 31.6211C16.458 31.619 16.458 31.6169 16.458 31.6148C16.458 31.6127 16.458 31.6106 16.458 31.6085C16.458 31.6064 16.458 31.6043 16.458 31.6022C16.458 31.6001 16.458 31.598 16.458 31.5959C16.458 31.5938 16.458 31.5917 16.458 31.5897C16.458 31.5876 16.458 31.5855 16.458 31.5834C16.458 31.5813 16.458 31.5792 16.458 31.5771C16.458 31.575 16.458 31.5729 16.458 31.5708C16.458 31.5687 16.458 31.5666 16.458 31.5645C16.458 31.5624 16.458 31.5603 16.458 31.5583C16.458 31.5562 16.458 31.5541 16.458 31.552C16.458 31.5499 16.458 31.5478 16.458 31.5457C16.458 31.5436 16.458 31.5415 16.458 31.5395C16.458 31.5374 16.458 31.5353 16.458 31.5332C16.458 31.5311 16.458 31.529 16.458 31.5269C16.458 31.5248 16.458 31.5228 16.458 31.5207C16.458 31.5186 16.458 31.5165 16.458 31.5144C16.458 31.5123 16.458 31.5102 16.458 31.5082C16.458 31.5061 16.458 31.504 16.458 31.5019C16.458 31.4998 16.458 31.4977 16.458 31.4957C16.458 31.4936 16.458 31.4915 16.458 31.4894C16.458 31.4873 16.458 31.4853 16.458 31.4832C16.458 31.4811 16.458 31.479 16.458 31.4769C16.458 31.4749 16.458 31.4728 16.458 31.4707C16.458 31.4686 16.458 31.4665 16.458 31.4645C16.458 31.4624 16.458 31.4603 16.458 31.4582C16.458 31.4562 16.458 31.4541 16.458 31.452C16.458 31.4499 16.458 31.4479 16.458 31.4458C16.458 31.4437 16.458 31.4416 16.458 31.4396C16.458 31.4375 16.458 31.4354 16.458 31.4333C16.458 31.4313 16.458 31.4292 16.458 31.4271C16.458 31.425 16.458 31.423 16.458 31.4209C16.458 31.4188 16.458 31.4168 16.458 31.4147C16.458 31.4126 16.458 31.4105 16.458 31.4085C16.458 31.4064 16.458 31.4043 16.458 31.4023C16.458 31.4002 16.458 31.3981 16.458 31.3961C16.458 31.394 16.458 31.3919 16.458 31.3899C16.458 31.3878 16.458 31.3857 16.458 31.3837C16.458 31.3816 16.458 31.3795 16.458 31.3775C16.458 31.3754 16.458 31.3733 16.458 31.3713C16.458 31.3692 16.458 31.3671 16.458 31.3651C16.458 31.363 16.458 31.3609 16.458 31.3589C16.458 31.3568 16.458 31.3548 16.458 31.3527C16.458 31.3506 16.458 31.3486 16.458 31.3465C16.458 31.3444 16.458 31.3424 16.458 31.3403C16.458 31.3383 16.458 31.3362 16.458 31.3341C16.458 31.3321 16.458 31.33 16.458 31.328C16.458 31.3259 16.458 31.3239 16.458 31.3218C16.458 31.3197 16.458 31.3177 16.458 31.3156C16.458 31.3136 16.458 31.3115 16.458 31.3095C16.458 31.3074 16.458 31.3053 16.458 31.3033C16.458 31.3012 16.458 31.2992 16.458 31.2971C16.458 31.2951 16.458 31.293 16.458 31.291C16.458 31.2889 16.458 31.2869 16.458 31.2848C16.458 31.2828 16.458 31.2807 16.458 31.2786C16.458 31.2766 16.458 31.2745 16.458 31.2725C16.458 31.2704 16.458 31.2684 16.458 31.2663C16.458 31.2643 16.458 31.2622 16.458 31.2602C16.458 31.2581 16.458 31.2561 16.458 31.2541C16.458 31.252 16.458 31.25 16.458 31.2479C16.458 31.2459 16.458 31.2438 16.458 31.2418C16.458 31.2397 16.458 31.2377 16.458 31.2356C16.458 31.2336 16.458 31.2315 16.458 31.2295C16.458 31.2275 16.458 31.2254 16.458 31.2234C16.458 31.2213 16.458 31.2193 16.458 31.2172C16.458 31.2152 16.458 31.2132 16.458 31.2111C16.458 31.2091 16.458 31.207 16.458 31.205C16.458 31.2029 16.458 31.2009 16.458 31.1989C16.458 31.1968 16.458 31.1948 16.458 31.1927C16.458 31.1907 16.458 31.1887 16.458 31.1866C16.458 31.1846 16.458 31.1826 16.458 31.1805C16.458 31.1785 16.458 31.1764 16.458 31.1744C16.458 31.1724 16.458 31.1703 16.458 31.1683C16.458 31.1663 16.458 31.1642 16.458 31.1622C16.458 31.1602 16.458 31.1581 16.458 31.1561C16.458 31.154 16.458 31.152 16.458 31.15C16.458 31.1479 16.458 31.1459 16.458 31.1439C16.458 31.1419 16.458 31.1398 16.458 31.1378C16.458 31.1358 16.458 31.1337 16.458 31.1317C16.458 31.1297 16.458 31.1276 16.458 31.1256C16.458 31.1236 16.458 31.1215 16.458 31.1195C16.458 31.1175 16.458 31.1155 16.458 31.1134C16.458 31.1114 16.458 31.1094 16.458 31.1074C16.458 31.1053 16.458 31.1033 16.458 31.1013C16.458 31.0992 16.458 31.0972 16.458 31.0952C16.458 31.0932 16.458 31.0911 16.458 31.0891C16.458 31.0871 16.458 31.0851 16.458 31.083C16.458 31.081 16.458 31.079 16.458 31.077C16.458 31.075 16.458 31.0729 16.458 31.0709C16.458 31.0689 16.458 31.0669 16.458 31.0648C16.458 31.0628 16.458 31.0608 16.458 31.0588C16.458 31.0568 16.458 31.0547 16.458 31.0527C16.458 31.0507 16.458 31.0487 16.458 31.0467C16.458 31.0447 16.458 31.0426 16.458 31.0406C16.458 31.0386 16.458 31.0366 16.458 31.0346C16.458 31.0326 16.458 31.0305 16.458 31.0285H12.458ZM12.4601 34.5593C12.5229 35.9422 12.7114 37.3214 13.0237 38.6958L16.9243 37.8093C16.6633 36.6609 16.5077 35.5175 16.4559 34.3777L12.4601 34.5593ZM16.3386 36.7904L12.4686 33.1784L9.73936 36.1026L13.6094 39.7146L16.3386 36.7904ZM12.902 35.5165C13.8842 33.5004 15.13 31.8601 16.6279 30.5619L14.0081 27.5391C12.066 29.2223 10.5025 31.3087 9.30602 33.7646L12.902 35.5165ZM16.6559 30.5371C18.1504 29.1921 19.9313 28.182 22.0285 27.517L20.8195 23.7041C18.2154 24.5298 15.9256 25.813 13.9801 27.5639L16.6559 30.5371ZM22.0565 27.5079C24.236 26.7814 26.6569 26.4065 29.336 26.4065V22.4065C26.2818 22.4065 23.428 22.8343 20.7915 23.7132L22.0565 27.5079ZM29.336 26.4065C32.9637 26.4065 36.1486 27.1249 38.9336 28.5174L40.7224 24.9397C37.3154 23.2361 33.5056 22.4065 29.336 22.4065V26.4065ZM38.9336 28.5174C41.723 29.9121 43.9149 31.8552 45.5495 34.3581L48.8985 32.1709C46.8637 29.0551 44.125 26.641 40.7224 24.9397L38.9336 28.5174ZM45.5651 34.3817C47.2092 36.8229 48.062 39.7201 48.062 43.1545H52.062C52.062 39.0209 51.0228 35.3248 48.8829 32.1473L45.5651 34.3817ZM48.062 43.1545C48.062 46.8696 47.1263 50.0231 45.3116 52.6948L48.6204 54.9423C50.9337 51.5366 52.062 47.5808 52.062 43.1545H48.062ZM45.3068 52.7018C43.5105 55.3706 41.0677 57.4652 37.9257 58.9838L39.6663 62.5852C43.4043 60.7785 46.4082 58.2291 48.6252 54.9353L45.3068 52.7018ZM37.9385 58.9777C34.8609 60.4382 31.3194 61.1925 27.272 61.1925V65.1925C31.8246 65.1925 35.9658 64.3415 39.6535 62.5914L37.9385 58.9777ZM26.498 54.7865C28.6832 54.7865 30.6981 54.4003 32.4961 53.5704L30.8199 49.9386C29.6366 50.4847 28.2115 50.7865 26.498 50.7865V54.7865ZM32.5256 53.5565C34.3934 52.6572 35.8936 51.3484 36.966 49.6325L33.574 47.5125C32.9264 48.5487 32.0186 49.3611 30.7904 49.9525L32.5256 53.5565ZM36.966 49.6325C38.0434 47.9087 38.56 45.9577 38.56 43.8425H34.56C34.56 45.282 34.2166 46.4844 33.574 47.5125L36.966 49.6325ZM38.56 43.8425C38.56 40.5753 37.4081 37.8112 35.016 35.7815L32.428 38.8315C33.8199 40.0125 34.56 41.6057 34.56 43.8425H38.56ZM35.065 35.8245C32.7767 33.7508 29.7891 32.8125 26.326 32.8125V36.8125C29.0549 36.8125 30.9979 37.5369 32.379 38.7885L35.065 35.8245ZM26.326 32.8125C24.0002 32.8125 21.8677 33.266 19.9874 34.241L21.8286 37.792C23.0443 37.1617 24.5238 36.8125 26.326 36.8125V32.8125ZM20.0404 34.2145C18.1828 35.1089 16.6698 36.4032 15.5459 38.0891L18.8741 40.3079C19.5848 39.2418 20.5372 38.4148 21.7756 37.8185L20.0404 34.2145ZM15.5348 38.106C14.4363 39.7903 13.92 41.7288 13.92 43.8425H17.92C17.92 42.4016 18.2637 41.2441 18.8852 40.2911L15.5348 38.106ZM13.92 43.8425C13.92 45.9138 14.4432 47.8333 15.514 49.5465L18.906 47.4265C18.2568 46.3877 17.92 45.2112 17.92 43.8425H13.92ZM15.5348 49.5791C16.6029 51.2169 18.0809 52.5001 19.9014 53.444L21.7426 49.893C20.4671 49.2316 19.5371 48.3935 18.8852 47.394L15.5348 49.5791ZM19.9544 53.4705C21.8419 54.3793 24.0487 54.7865 26.498 54.7865V50.7865C24.4753 50.7865 22.8982 50.4484 21.6896 49.8665L19.9544 53.4705ZM75.8378 59.5805L74.7689 61.2709L74.7778 61.2766L74.7868 61.2821L75.8378 59.5805ZM66.6358 48.9165L64.8338 49.7841L66.6358 48.9165ZM66.6358 15.2045L68.4378 16.0722L66.6358 15.2045ZM75.8378 4.62652L76.8888 6.32812L76.8978 6.32256L76.9067 6.31691L75.8378 4.62652ZM102.326 4.62652L101.246 6.30969L101.26 6.31903L101.275 6.32812L102.326 4.62652ZM111.528 15.2045L109.726 16.0722V16.0722L111.528 15.2045ZM111.528 48.9165L109.726 48.0489L111.528 48.9165ZM102.326 59.5805L103.388 61.2751L103.395 61.2709L102.326 59.5805ZM95.1878 49.4325L93.9961 47.8263L93.9835 47.8357L93.9709 47.8453L95.1878 49.4325ZM99.3158 43.1545L97.434 42.4771L97.428 42.4938L97.4223 42.5107L99.3158 43.1545ZM99.3158 20.9665L97.4223 21.6103L97.428 21.6272L97.434 21.644L99.3158 20.9665ZM95.1878 14.6885L93.9709 16.2757L93.9835 16.2853L93.9961 16.2947L95.1878 14.6885ZM82.9758 14.6885L81.7841 13.0823L81.7715 13.0917L81.7589 13.1013L82.9758 14.6885ZM78.8478 20.9665L76.966 20.2891L76.96 20.3058L76.9543 20.3227L78.8478 20.9665ZM78.8478 43.1545L76.9543 43.7983L76.96 43.8152L76.966 43.832L78.8478 43.1545ZM82.9758 49.4325L81.7589 51.0197L81.7715 51.0293L81.7841 51.0387L82.9758 49.4325ZM89.0818 61.1925C84.493 61.1925 80.4476 60.077 76.8888 57.8789L74.7868 61.2821C79.0254 63.9001 83.8093 65.1925 89.0818 65.1925V61.1925ZM76.9067 57.8901C73.3609 55.6479 70.531 52.3962 68.4378 48.0489L64.8338 49.7841C67.2127 54.7248 70.5174 58.5825 74.7689 61.2709L76.9067 57.8901ZM68.4378 48.0489C66.3633 43.7402 65.2818 38.4346 65.2818 32.0605H61.2818C61.2818 38.8731 62.4364 44.8048 64.8338 49.7841L68.4378 48.0489ZM65.2818 32.0605C65.2818 25.6865 66.3633 20.3808 68.4378 16.0722L64.8338 14.3369C62.4364 19.3162 61.2818 25.2479 61.2818 32.0605H65.2818ZM68.4378 16.0722C70.5295 11.7279 73.3543 8.51118 76.8888 6.32812L74.7868 2.92492C70.524 5.55786 67.2141 9.39316 64.8338 14.3369L68.4378 16.0722ZM76.9067 6.31691C80.4633 4.06791 84.5023 2.92852 89.0818 2.92852V-1.07148C83.8 -1.07148 79.0097 0.254471 74.7689 2.93613L76.9067 6.31691ZM89.0818 2.92852C93.7238 2.92852 97.7563 4.07031 101.246 6.30969L103.406 2.94335C99.2127 0.252066 94.4159 -1.07148 89.0818 -1.07148V2.92852ZM101.275 6.32812C104.809 8.51118 107.634 11.7279 109.726 16.0722L113.33 14.3369C110.95 9.39316 107.64 5.55786 103.377 2.92492L101.275 6.32812ZM109.726 16.0722C111.8 20.3808 112.882 25.6865 112.882 32.0605H116.882C116.882 25.2479 115.727 19.3162 113.33 14.3369L109.726 16.0722ZM112.882 32.0605C112.882 38.4346 111.8 43.7402 109.726 48.0489L113.33 49.7842C115.727 44.8048 116.882 38.8731 116.882 32.0605H112.882ZM109.726 48.0489C107.633 52.3962 104.803 55.6479 101.257 57.8901L103.395 61.2709C107.646 58.5825 110.951 54.7248 113.33 49.7841L109.726 48.0489ZM101.264 57.8859C97.7721 60.0746 93.733 61.1925 89.0818 61.1925V65.1925C94.4066 65.1925 99.1969 63.9024 103.388 61.2751L101.264 57.8859ZM89.0818 53.4105C91.8329 53.4105 94.3054 52.6292 96.4047 51.0197L93.9709 47.8453C92.6303 48.8732 91.032 49.4105 89.0818 49.4105V53.4105ZM96.3795 51.0387C98.5833 49.4036 100.151 46.9116 101.209 43.7983L97.4223 42.5107C96.5314 45.1308 95.347 46.8241 93.9961 47.8263L96.3795 51.0387ZM101.198 43.832C102.336 40.6696 102.864 36.7194 102.864 32.0605H98.8638C98.8638 36.4603 98.3596 39.9061 97.434 42.4771L101.198 43.832ZM102.864 32.0605C102.864 27.4017 102.336 23.4515 101.198 20.2891L97.434 21.644C98.3596 24.2149 98.8638 27.6607 98.8638 32.0605H102.864ZM101.209 20.3227C100.151 17.2095 98.5833 14.7174 96.3795 13.0823L93.9961 16.2947C95.347 17.297 96.5314 18.9902 97.4223 21.6103L101.209 20.3227ZM96.4047 13.1013C94.3054 11.4918 91.8329 10.7105 89.0818 10.7105V14.7105C91.032 14.7105 92.6303 15.2479 93.9709 16.2757L96.4047 13.1013ZM89.0818 10.7105C86.376 10.7105 83.9193 11.4982 81.7841 13.0823L84.1675 16.2947C85.587 15.2415 87.201 14.7105 89.0818 14.7105V10.7105ZM81.7589 13.1013C79.6348 14.7298 78.0774 17.2019 76.966 20.2891L80.7296 21.644C81.6822 18.9978 82.8768 17.2845 84.1927 16.2757L81.7589 13.1013ZM76.9543 20.3227C75.8834 23.4724 75.3858 27.4098 75.3858 32.0605H79.3858C79.3858 27.6526 79.8629 24.194 80.7414 21.6103L76.9543 20.3227ZM75.3858 32.0605C75.3858 36.7113 75.8834 40.6487 76.9543 43.7983L80.7414 42.5107C79.8629 39.9271 79.3858 36.4684 79.3858 32.0605H75.3858ZM76.966 43.832C78.0774 46.9191 79.6348 49.3912 81.7589 51.0197L84.1927 47.8453C82.8768 46.8365 81.6822 45.1233 80.7296 42.4771L76.966 43.832ZM81.7841 51.0387C83.9193 52.6229 86.376 53.4105 89.0818 53.4105V49.4105C87.201 49.4105 85.587 48.8795 84.1675 47.8263L81.7841 51.0387ZM142.377 59.5805L141.308 61.2709L141.317 61.2766L141.326 61.2821L142.377 59.5805ZM133.175 48.9165L131.373 49.7841L133.175 48.9165ZM133.175 15.2045L134.977 16.0722L133.175 15.2045ZM142.377 4.62652L143.428 6.32812L143.437 6.32256L143.446 6.31691L142.377 4.62652ZM168.865 4.62652L167.785 6.30969L167.799 6.31903L167.814 6.32812L168.865 4.62652ZM178.067 15.2045L176.265 16.0722V16.0722L178.067 15.2045ZM178.067 48.9165L176.265 48.0489L178.067 48.9165ZM168.865 59.5805L169.927 61.2751L169.934 61.2709L168.865 59.5805ZM161.727 49.4325L160.535 47.8263L160.523 47.8357L160.51 47.8453L161.727 49.4325ZM165.855 43.1545L163.973 42.4771L163.967 42.4938L163.961 42.5107L165.855 43.1545ZM165.855 20.9665L163.961 21.6103L163.967 21.6272L163.973 21.644L165.855 20.9665ZM161.727 14.6885L160.51 16.2757L160.523 16.2853L160.535 16.2947L161.727 14.6885ZM149.515 14.6885L148.323 13.0823L148.311 13.0917L148.298 13.1013L149.515 14.6885ZM145.387 20.9665L143.505 20.2891L143.499 20.3058L143.493 20.3227L145.387 20.9665ZM145.387 43.1545L143.493 43.7983L143.499 43.8152L143.505 43.832L145.387 43.1545ZM149.515 49.4325L148.298 51.0197L148.311 51.0293L148.323 51.0387L149.515 49.4325ZM155.621 61.1925C151.032 61.1925 146.987 60.077 143.428 57.8789L141.326 61.2821C145.565 63.9001 150.348 65.1925 155.621 65.1925V61.1925ZM143.446 57.8901C139.9 55.6479 137.07 52.3962 134.977 48.0489L131.373 49.7841C133.752 54.7248 137.057 58.5825 141.308 61.2709L143.446 57.8901ZM134.977 48.0489C132.902 43.7402 131.821 38.4346 131.821 32.0605H127.821C127.821 38.8731 128.975 44.8048 131.373 49.7841L134.977 48.0489ZM131.821 32.0605C131.821 25.6865 132.902 20.3808 134.977 16.0722L131.373 14.3369C128.975 19.3162 127.821 25.2479 127.821 32.0605H131.821ZM134.977 16.0722C137.069 11.7279 139.893 8.51118 143.428 6.32812L141.326 2.92492C137.063 5.55786 133.753 9.39316 131.373 14.3369L134.977 16.0722ZM143.446 6.31691C147.002 4.06791 151.041 2.92852 155.621 2.92852V-1.07148C150.339 -1.07148 145.549 0.254471 141.308 2.93613L143.446 6.31691ZM155.621 2.92852C160.263 2.92852 164.295 4.07031 167.785 6.30969L169.945 2.94335C165.752 0.252066 160.955 -1.07148 155.621 -1.07148V2.92852ZM167.814 6.32812C171.348 8.51118 174.173 11.7279 176.265 16.0722L179.869 14.3369C177.489 9.39316 174.179 5.55786 169.916 2.92492L167.814 6.32812ZM176.265 16.0722C178.34 20.3808 179.421 25.6865 179.421 32.0605H183.421C183.421 25.2479 182.266 19.3162 179.869 14.3369L176.265 16.0722ZM179.421 32.0605C179.421 38.4346 178.34 43.7402 176.265 48.0489L179.869 49.7842C182.266 44.8048 183.421 38.8731 183.421 32.0605H179.421ZM176.265 48.0489C174.172 52.3962 171.342 55.6479 167.796 57.8901L169.934 61.2709C174.185 58.5825 177.49 54.7248 179.869 49.7841L176.265 48.0489ZM167.803 57.8859C164.311 60.0746 160.272 61.1925 155.621 61.1925V65.1925C160.946 65.1925 165.736 63.9024 169.927 61.2751L167.803 57.8859ZM155.621 53.4105C158.372 53.4105 160.844 52.6292 162.944 51.0197L160.51 47.8453C159.169 48.8732 157.571 49.4105 155.621 49.4105V53.4105ZM162.919 51.0387C165.122 49.4036 166.69 46.9116 167.749 43.7983L163.961 42.5107C163.071 45.1308 161.886 46.8241 160.535 47.8263L162.919 51.0387ZM167.737 43.832C168.875 40.6696 169.403 36.7194 169.403 32.0605H165.403C165.403 36.4603 164.899 39.9061 163.973 42.4771L167.737 43.832ZM169.403 32.0605C169.403 27.4017 168.875 23.4515 167.737 20.2891L163.973 21.644C164.899 24.2149 165.403 27.6607 165.403 32.0605H169.403ZM167.749 20.3227C166.69 17.2095 165.122 14.7174 162.919 13.0823L160.535 16.2947C161.886 17.297 163.071 18.9902 163.961 21.6103L167.749 20.3227ZM162.944 13.1013C160.844 11.4918 158.372 10.7105 155.621 10.7105V14.7105C157.571 14.7105 159.169 15.2479 160.51 16.2757L162.944 13.1013ZM155.621 10.7105C152.915 10.7105 150.458 11.4982 148.323 13.0823L150.707 16.2947C152.126 15.2415 153.74 14.7105 155.621 14.7105V10.7105ZM148.298 13.1013C146.174 14.7298 144.617 17.2019 143.505 20.2891L147.269 21.644C148.221 18.9978 149.416 17.2845 150.732 16.2757L148.298 13.1013ZM143.493 20.3227C142.423 23.4724 141.925 27.4098 141.925 32.0605H145.925C145.925 27.6526 146.402 24.194 147.281 21.6103L143.493 20.3227ZM141.925 32.0605C141.925 36.7113 142.423 40.6487 143.493 43.7983L147.281 42.5107C146.402 39.9271 145.925 36.4684 145.925 32.0605H141.925ZM143.505 43.832C144.617 46.9191 146.174 49.3912 148.298 51.0197L150.732 47.8453C149.416 46.8365 148.221 45.1233 147.269 42.4771L143.505 43.832ZM148.323 51.0387C150.458 52.6229 152.915 53.4105 155.621 53.4105V49.4105C153.74 49.4105 152.126 48.8795 150.707 47.8263L148.323 51.0387Z" fill="url(#paint0_linear_64_4116)"/>
<defs>
<linearGradient id="paint0_linear_64_4116" x1="-3" y1="31.6605" x2="185" y2="31.6605" gradientUnits="userSpaceOnUse">
<stop stop-color="#F7941D"/>
<stop offset="1" stop-color="#27AAE1"/>
</linearGradient>
</defs>
</svg>
