<svg width="111" height="64" viewBox="0 0 111 64" fill="none" xmlns="http://www.w3.org/2000/svg">
<path d="M12.351 60.9565L11.5938 62.8076L11.6058 62.8126L11.618 62.8173L12.351 60.9565ZM3.49303 54.5065L1.89694 55.7117L1.90294 55.7197L1.90901 55.7275L3.49303 54.5065ZM3.40703 35.2425L1.84859 33.989L1.84529 33.9931L3.40703 35.2425ZM12.265 29.3085L12.9232 31.1971L12.9359 31.1927L12.9485 31.1881L12.265 29.3085ZM39.011 29.3085L38.3275 31.1881L38.3445 31.1943L38.3617 31.2002L39.011 29.3085ZM47.869 35.2425L46.294 36.4751L46.3089 36.4941L46.3242 36.5127L47.869 35.2425ZM47.869 54.5065L49.453 55.7275L49.4591 55.7197L49.4651 55.7117L47.869 54.5065ZM38.925 60.9565L39.6581 62.8173L39.6653 62.8145L39.6726 62.8116L38.925 60.9565ZM33.851 50.6365L32.651 49.0365L32.6402 49.0447L32.6294 49.053L33.851 50.6365ZM33.851 37.9945L32.6294 39.5781L32.6544 39.5974L32.68 39.6159L33.851 37.9945ZM17.425 37.9945L18.6177 39.6L18.6323 39.5892L18.6466 39.5781L17.425 37.9945ZM17.425 50.6365L16.2034 52.2201H16.2034L17.425 50.6365ZM13.383 32.4045L12.6945 34.2823L12.7045 34.2859L13.383 32.4045ZM5.29903 26.9005L3.71241 28.1182L3.72821 28.1387L3.74454 28.1589L5.29903 26.9005ZM5.38503 9.01252L6.9676 10.2354L6.97423 10.2268L6.98076 10.2182L5.38503 9.01252ZM13.555 3.07852L14.2873 4.93965L14.3004 4.93448L14.3135 4.92913L13.555 3.07852ZM37.721 3.07852L36.9518 4.92467L36.9702 4.93235L36.9888 4.93965L37.721 3.07852ZM45.891 9.01252L44.2953 10.2182L44.3103 10.2381L44.3258 10.2576L45.891 9.01252ZM45.977 26.9005L44.4082 25.66L44.4044 25.6649L45.977 26.9005ZM32.475 24.1485L31.2582 22.5613L31.2451 22.5713L31.2322 22.5815L32.475 24.1485ZM32.389 13.1405L31.1722 14.7277L31.1847 14.7373L31.1973 14.7467L32.389 13.1405ZM18.887 13.1405L20.1039 14.7277L18.887 13.1405ZM18.801 24.1485L17.5582 25.7155H17.5582L18.801 24.1485ZM25.595 61.1925C20.7423 61.1925 16.5859 60.4752 13.0841 59.0957L11.618 62.8173C15.6841 64.4192 20.3571 65.1925 25.595 65.1925V61.1925ZM13.1083 59.1054C9.59253 57.6672 6.94783 55.7125 5.07705 53.2855L1.90901 55.7275C4.28089 58.8046 7.54152 61.1499 11.5938 62.8076L13.1083 59.1054ZM5.08911 53.3013C3.24583 50.8602 2.31103 48.0214 2.31103 44.7025H-1.68897C-1.68897 48.8369 -0.502449 52.5342 1.89694 55.7117L5.08911 53.3013ZM2.31103 44.7025C2.31103 41.3686 3.22456 38.6722 4.96876 36.4919L1.84529 33.9931C-0.538513 36.9729 -1.68897 40.5831 -1.68897 44.7025H2.31103ZM4.96545 36.496C6.81189 34.2005 9.42695 32.4155 12.9232 31.1971L11.6069 27.4199C7.5351 28.8389 4.24482 31.0099 1.8486 33.989L4.96545 36.496ZM12.9485 31.1881C16.4637 29.9099 20.6659 29.2445 25.595 29.2445V25.2445C20.3188 25.2445 15.6343 25.9552 11.5815 27.4289L12.9485 31.1881ZM25.595 29.2445C30.5844 29.2445 34.8145 29.9106 38.3275 31.1881L39.6945 27.4289C35.6395 25.9544 30.9257 25.2445 25.595 25.2445V29.2445ZM38.3617 31.2002C41.9157 32.4202 44.5148 34.2017 46.294 36.4751L49.444 34.0099C47.0952 31.0087 43.789 28.8342 39.6604 27.4169L38.3617 31.2002ZM46.3242 36.5127C48.1169 38.6931 49.051 41.3822 49.051 44.7025H53.051C53.051 40.5695 51.8638 36.9519 49.4139 33.9723L46.3242 36.5127ZM49.051 44.7025C49.051 48.0214 48.1162 50.8602 46.2729 53.3013L49.4651 55.7117C51.8645 52.5342 53.051 48.8369 53.051 44.7025H49.051ZM46.285 53.2855C44.4195 55.7057 41.7522 57.6609 38.1775 59.1015L39.6726 62.8116C43.7805 61.1561 47.0759 58.8114 49.453 55.7275L46.285 53.2855ZM38.192 59.0957C34.6925 60.4743 30.5083 61.1925 25.595 61.1925V65.1925C30.8871 65.1925 35.5895 64.4201 39.6581 62.8173L38.192 59.0957ZM25.595 54.9585C29.3691 54.9585 32.6044 54.1241 35.0726 52.2201L32.6294 49.053C31.0843 50.2449 28.8156 50.9585 25.595 50.9585V54.9585ZM35.051 52.2365C37.6443 50.2916 38.947 47.5639 38.947 44.2725H34.947C34.947 46.3704 34.1858 47.8855 32.651 49.0365L35.051 52.2365ZM38.947 44.2725C38.947 40.9797 37.6413 38.2649 35.022 36.3732L32.68 39.6159C34.1887 40.7055 34.947 42.176 34.947 44.2725H38.947ZM35.0726 36.411C32.6044 34.5069 29.3691 33.6725 25.595 33.6725V37.6725C28.8156 37.6725 31.0843 38.3861 32.6294 39.5781L35.0726 36.411ZM25.595 33.6725C21.8694 33.6725 18.6665 34.5109 16.2034 36.411L18.6466 39.5781C20.1969 38.3822 22.4407 37.6725 25.595 37.6725V33.6725ZM16.2324 36.389C13.6734 38.29 12.415 41.0025 12.415 44.2725H16.415C16.415 42.1532 17.1633 40.6804 18.6177 39.6L16.2324 36.389ZM12.415 44.2725C12.415 47.5417 13.671 50.2665 16.2034 52.2201L18.6466 49.053C17.1658 47.9106 16.415 46.3927 16.415 44.2725H12.415ZM16.2034 52.2201C18.6665 54.1202 21.8694 54.9585 25.595 54.9585V50.9585C22.4407 50.9585 20.1969 50.2489 18.6466 49.053L16.2034 52.2201ZM25.595 32.2965C21.1271 32.2965 17.2947 31.6892 14.0616 30.5231L12.7045 34.2859C16.466 35.6425 20.775 36.2965 25.595 36.2965V32.2965ZM14.0715 30.5268C10.9083 29.3669 8.53692 27.7216 6.85352 25.6421L3.74454 28.1589C5.95979 30.8954 8.97771 32.9194 12.6945 34.2823L14.0715 30.5268ZM6.88564 25.6829C5.28586 23.5983 4.46103 21.1122 4.46103 18.1285H0.461026C0.461026 21.9101 1.52819 25.2721 3.71241 28.1182L6.88564 25.6829ZM4.46103 18.1285C4.46103 14.9627 5.31998 12.3676 6.9676 10.2354L3.80246 7.78963C1.5514 10.7028 0.461026 14.185 0.461026 18.1285H4.46103ZM6.98076 10.2182C8.67414 7.97694 11.0761 6.20305 14.2873 4.93965L12.8228 1.21739C9.03926 2.70598 5.99457 4.8881 3.78929 7.80685L6.98076 10.2182ZM14.3135 4.92913C17.5274 3.61193 21.2753 2.92852 25.595 2.92852V-1.07148C20.856 -1.07148 16.5773 -0.321556 12.7966 1.22791L14.3135 4.92913ZM25.595 2.92852C30.0378 2.92852 33.8075 3.61456 36.9518 4.92467L38.4903 1.23236C34.7545 -0.324188 30.4402 -1.07148 25.595 -1.07148V2.92852ZM36.9888 4.93965C40.1999 6.20305 42.6019 7.97694 44.2953 10.2182L47.4868 7.80685C45.2815 4.8881 42.2368 2.70598 38.4533 1.21739L36.9888 4.93965ZM44.3258 10.2576C46.0217 12.3895 46.901 14.9767 46.901 18.1285H50.901C50.901 14.171 49.7737 10.6809 47.4562 7.76747L44.3258 10.2576ZM46.901 18.1285C46.901 21.0977 46.0563 23.5756 44.4082 25.66L47.5459 28.141C49.7964 25.2947 50.901 21.9247 50.901 18.1285H46.901ZM44.4044 25.6649C42.7892 27.7205 40.435 29.3616 37.2145 30.5231L38.5716 34.2859C42.3457 32.9247 45.3808 30.8965 47.5497 28.1362L44.4044 25.6649ZM37.2145 30.5231C33.9837 31.6883 30.1235 32.2965 25.595 32.2965V36.2965C30.4692 36.2965 34.8077 35.6434 38.5716 34.2859L37.2145 30.5231ZM25.595 28.1265C28.8018 28.1265 31.589 27.4039 33.7178 25.7155L31.2322 22.5815C30.0357 23.5305 28.2363 24.1265 25.595 24.1265V28.1265ZM33.6919 25.7357C35.938 24.0137 37.055 21.6039 37.055 18.7305H33.055C33.055 20.4438 32.4521 21.646 31.2582 22.5613L33.6919 25.7357ZM37.055 18.7305C37.055 15.754 35.9163 13.2672 33.5807 11.5343L31.1973 14.7467C32.4164 15.6512 33.055 16.891 33.055 18.7305H37.055ZM33.6059 11.5533C31.4453 9.89686 28.7133 9.16252 25.595 9.16252V13.1625C28.0954 13.1625 29.8927 13.7468 31.1722 14.7277L33.6059 11.5533ZM25.595 9.16252C22.5232 9.16252 19.824 9.90202 17.6702 11.5533L20.1039 14.7277C21.39 13.7417 23.1628 13.1625 25.595 13.1625V9.16252ZM17.6702 11.5533C15.3969 13.2962 14.307 15.7796 14.307 18.7305H18.307C18.307 16.8654 18.9372 15.6222 20.1039 14.7277L17.6702 11.5533ZM14.307 18.7305C14.307 21.5778 15.3746 23.9837 17.5582 25.7155L20.0438 22.5815C18.9021 21.676 18.307 20.4699 18.307 18.7305H14.307ZM17.5582 25.7155C19.6808 27.3989 22.4347 28.1265 25.595 28.1265V24.1265C23.022 24.1265 21.2466 23.5355 20.0438 22.5815L17.5582 25.7155ZM65.0825 62.1605H63.0825V64.1605H65.0825V62.1605ZM65.0825 53.1305L63.7092 51.6765L63.0825 52.2684V53.1305H65.0825ZM88.3025 31.2005L86.9594 29.7185L86.9442 29.7324L86.9292 29.7465L88.3025 31.2005ZM92.3445 26.7285L94.0197 27.8211L92.3445 26.7285ZM94.0645 23.1165L92.1573 22.5143L92.1427 22.5606L92.1303 22.6075L94.0645 23.1165ZM92.0865 14.6025L90.817 16.148L90.8469 16.1725L90.8777 16.1959L92.0865 14.6025ZM77.8965 14.0865L77.0797 12.2609L77.0706 12.265L77.0615 12.2692L77.8965 14.0865ZM72.4785 18.6445L71.3955 20.326L72.9896 21.3527L74.0998 19.8155L72.4785 18.6445ZM62.3305 12.1085L60.6664 10.9991L59.5393 12.6897L61.2475 13.79L62.3305 12.1085ZM71.9625 3.93852L71.0881 2.13978V2.13978L71.9625 3.93852ZM97.9345 3.16452L97.1163 4.98954L97.1352 4.99797L97.1542 5.00602L97.9345 3.16452ZM105.76 9.27052L104.119 10.4127L104.127 10.4246L104.135 10.4363L105.76 9.27052ZM107.824 24.5785L105.891 24.0667L105.886 24.087L105.881 24.1073L107.824 24.5785ZM104.9 30.5985L103.264 29.4486L103.254 29.4636L103.243 29.4788L104.9 30.5985ZM98.5365 37.7365L97.1676 36.2784L97.1651 36.2807L98.5365 37.7365ZM79.2725 55.8825L77.502 56.8128L78.7269 59.144L80.6438 57.3383L79.2725 55.8825ZM76.6065 50.8085V48.8085H73.2963L74.836 51.7388L76.6065 50.8085ZM110.576 50.8085H112.576V48.8085H110.576V50.8085ZM110.576 62.1605V64.1605H112.576V62.1605H110.576ZM67.0825 62.1605V53.1305H63.0825V62.1605H67.0825ZM66.4557 54.5845L89.6757 32.6545L86.9292 29.7465L63.7092 51.6765L66.4557 54.5845ZM89.6455 32.6825C91.5435 30.9624 93.0286 29.3407 94.0197 27.8211L90.6692 25.636C89.9403 26.7537 88.7307 28.1133 86.9594 29.7185L89.6455 32.6825ZM94.0197 27.8211C94.9538 26.3887 95.6405 24.9862 95.9986 23.6255L92.1303 22.6075C91.9151 23.4255 91.4551 24.431 90.6692 25.636L94.0197 27.8211ZM95.9716 23.7188C96.3627 22.4803 96.5805 21.2711 96.5805 20.1065H92.5805C92.5805 20.7766 92.4542 21.5741 92.1573 22.5143L95.9716 23.7188ZM96.5805 20.1065C96.5805 17.1822 95.5374 14.7101 93.2952 13.0091L90.8777 16.1959C91.9608 17.0176 92.5805 18.2149 92.5805 20.1065H96.5805ZM93.3559 13.0571C91.2486 11.326 88.3354 10.6245 84.9485 10.6245V14.6245C87.8682 14.6245 89.7137 15.2417 90.817 16.148L93.3559 13.0571ZM84.9485 10.6245C82.1607 10.6245 79.5298 11.1648 77.0797 12.2609L78.7132 15.9122C80.6204 15.0589 82.6909 14.6245 84.9485 14.6245V10.6245ZM77.0615 12.2692C74.5987 13.4007 72.531 15.1559 70.8571 17.4735L74.0998 19.8155C75.4073 18.0051 76.9516 16.7217 78.7315 15.9039L77.0615 12.2692ZM73.5614 16.9631L63.4134 10.4271L61.2475 13.79L71.3955 20.326L73.5614 16.9631ZM63.9946 13.2179C66.0695 10.1056 68.9925 7.60602 72.8368 5.73725L71.0881 2.13978C66.6764 4.28436 63.1781 7.23147 60.6664 10.9991L63.9946 13.2179ZM72.8368 5.73726C76.6488 3.88421 81.0996 2.92852 86.2385 2.92852V-1.07148C80.5987 -1.07148 75.5321 -0.0205002 71.0881 2.13978L72.8368 5.73726ZM86.2385 2.92852C90.491 2.92852 94.0998 3.63731 97.1163 4.98954L98.7526 1.3395C95.1184 -0.289604 90.9299 -1.07148 86.2385 -1.07148V2.92852ZM97.1542 5.00602C100.24 6.31379 102.529 8.1276 104.119 10.4127L107.402 8.12839C105.323 5.13877 102.394 2.88192 98.7148 1.32302L97.1542 5.00602ZM104.135 10.4363C105.752 12.6904 106.598 15.4226 106.598 18.7305H110.598C110.598 14.6998 109.553 11.1253 107.386 8.10471L104.135 10.4363ZM106.598 18.7305C106.598 20.5012 106.364 22.2786 105.891 24.0667L109.758 25.0903C110.317 22.9797 110.598 20.8585 110.598 18.7305H106.598ZM105.881 24.1073C105.497 25.6898 104.656 27.4681 103.264 29.4486L106.537 31.7484C108.126 29.4862 109.234 27.2513 109.768 25.0497L105.881 24.1073ZM103.243 29.4788C101.924 31.4319 99.9171 33.6972 97.1676 36.2784L99.9053 39.1947C102.774 36.5012 105.011 34.0078 106.558 31.7182L103.243 29.4788ZM97.1651 36.2807L77.9011 54.4267L80.6438 57.3383L99.9078 39.1923L97.1651 36.2807ZM81.0429 54.9523L78.3769 49.8783L74.836 51.7388L77.502 56.8128L81.0429 54.9523ZM76.6065 52.8085H110.576V48.8085H76.6065V52.8085ZM108.576 50.8085V62.1605H112.576V50.8085H108.576ZM110.576 60.1605H65.0825V64.1605H110.576V60.1605Z" fill="url(#paint0_linear_64_4119)"/>
<defs>
<linearGradient id="paint0_linear_64_4119" x1="-2.69897" y1="31.6605" x2="113.301" y2="31.6605" gradientUnits="userSpaceOnUse">
<stop stop-color="#F7941D"/>
<stop offset="1" stop-color="#27AAE1"/>
</linearGradient>
</defs>
</svg>
