<svg width="352" height="130" viewBox="0 0 352 130" fill="none" xmlns="http://www.w3.org/2000/svg">
<path fill-rule="evenodd" clip-rule="evenodd" d="M21 1C9.95431 1 1 9.9543 1 21V81C1 92.0457 9.9543 101 21 101H141V126.839C141 128.516 142.94 129.448 144.249 128.4L178.5 101H331C342.046 101 351 92.0457 351 81V21C351 9.95431 342.046 1 331 1H21Z" fill="white"/>
<path d="M141 101H142V100H141V101ZM144.249 128.4L143.625 127.62L144.249 128.4ZM178.5 101V100H178.149L177.875 100.219L178.5 101ZM2 21C2 10.5066 10.5066 2 21 2V0C9.40202 0 0 9.40202 0 21H2ZM2 81V21H0V81H2ZM21 100C10.5066 100 2 91.4934 2 81H0C0 92.598 9.40202 102 21 102V100ZM141 100H21V102H141V100ZM140 101V126.839H142V101H140ZM140 126.839C140 129.354 142.91 130.753 144.874 129.181L143.625 127.62C142.97 128.143 142 127.677 142 126.839H140ZM144.874 129.181L179.125 101.781L177.875 100.219L143.625 127.62L144.874 129.181ZM331 100H178.5V102H331V100ZM350 81C350 91.4934 341.493 100 331 100V102C342.598 102 352 92.598 352 81H350ZM350 21V81H352V21H350ZM331 2C341.493 2 350 10.5066 350 21H352C352 9.40202 342.598 0 331 0V2ZM21 2H331V0H21V2Z" fill="url(#paint0_linear_188_5861)"/>
<defs>
<linearGradient id="paint0_linear_188_5861" x1="1" y1="64.9212" x2="351" y2="64.9212" gradientUnits="userSpaceOnUse">
<stop stop-color="#F7941D"/>
<stop offset="1" stop-color="#27AAE1"/>
</linearGradient>
</defs>
</svg>
